<svg xmlns="http://www.w3.org/2000/svg" viewBox="0 0 913.23 591.36"><defs><style>.cls-1{fill:#666;}.cls-1,.cls-2{fill-rule:evenodd;}.cls-2{fill:#999;}</style></defs><title>Asset 17</title><g id="Layer_2" data-name="Layer 2"><g id="BASES"><polygon class="cls-1" points="692.74 235.28 622.97 275.06 515.82 213.31 585.59 173.53 692.74 235.28"/><polygon class="cls-2" points="692.74 234.48 622.97 274.26 515.82 212.5 585.59 172.72 692.74 234.48"/><polygon class="cls-1" points="495.15 88.46 396.49 144.72 244.97 57.39 343.63 1.13 495.15 88.46"/><polygon class="cls-2" points="495.15 87.33 396.49 143.58 244.97 56.26 343.63 0 495.15 87.33"/><polygon class="cls-1" points="913.23 340.97 822.4 392.75 682.93 312.37 773.75 260.58 913.23 340.97"/><polygon class="cls-2" points="913.23 339.92 822.4 391.71 682.93 311.32 773.75 259.54 913.23 339.92"/><polygon class="cls-1" points="522.11 170.44 480.14 194.37 415.68 157.23 457.65 133.3 522.11 170.44"/><polygon class="cls-2" points="522.11 169.96 480.14 193.89 415.68 156.74 457.65 132.81 522.11 169.96"/><polygon class="cls-1" points="586.51 541.75 499.51 591.36 365.91 514.36 452.91 464.75 586.51 541.75"/><polygon class="cls-2" points="586.51 540.75 499.51 590.36 365.91 513.36 452.91 463.75 586.51 540.75"/><polygon class="cls-1" points="267.72 335.66 162.14 395.85 0 302.41 105.58 242.21 267.72 335.66"/><polygon class="cls-2" points="267.72 334.44 162.14 394.64 0 301.19 105.58 241 267.72 334.44"/></g></g></svg>