<svg xmlns="http://www.w3.org/2000/svg" viewBox="0 0 647.8 272.55"><defs><style>.cls-1{isolation:isolate;}.cls-2,.cls-6{fill:#222223;}.cls-12,.cls-14,.cls-18,.cls-19,.cls-2,.cls-22,.cls-23,.cls-3,.cls-33,.cls-4,.cls-41,.cls-45,.cls-5,.cls-7,.cls-8{fill-rule:evenodd;}.cls-13,.cls-3{fill:#333538;}.cls-11,.cls-4{fill:#4a4d53;}.cls-5{fill:#5c5f63;}.cls-27,.cls-7{fill:#fff;}.cls-17,.cls-8{fill:#e5e3de;}.cls-9{fill:#a41d2f;}.cls-10{fill:#cc0136;}.cls-12{fill:#b81633;}.cls-14,.cls-16{fill:#afaead;}.cls-15{fill:#8b8b8b;}.cls-18,.cls-36{fill:#cb2228;}.cls-19{fill:#efc431;}.cls-20{fill:#365f8a;}.cls-21{fill:#4070b0;}.cls-22,.cls-24{fill:#4a81bf;}.cls-23{fill:#d1cec6;mix-blend-mode:multiply;}.cls-25,.cls-45{fill:#232323;}.cls-26,.cls-33{fill:#363636;}.cls-28{fill:#5291b1;}.cls-29{fill:#61abeb;}.cls-30{fill:#437580;}.cls-31{fill:#5ba0cf;}.cls-32{fill:#477d90;}.cls-34{fill:#c62914;}.cls-35{fill:#b61a26;}.cls-37{fill:#355751;}.cls-38{fill:#8c142a;}.cls-39{fill:#9f1628;}.cls-40{fill:#d9ab2a;}.cls-41{fill:#ccc;}.cls-42{fill:#5fa7aa;}.cls-43{fill:#4f877d;}.cls-44{fill:#3b665c;}</style></defs><title>Asset 22</title><g class="cls-1"><g id="Layer_2" data-name="Layer 2"><g id="CARS"><polygon class="cls-2" points="638.98 221.17 636.79 223.76 636.79 224.07 622.56 228.59 622.56 228.28 622.9 234.46 622.9 236.03 638.98 226.68 638.98 221.17"/><polygon class="cls-2" points="612.76 229.17 622.9 235.03 622.9 236.03 612.76 230.18 612.76 229.17"/><polygon class="cls-3" points="609.79 228.97 619.97 234.85 619.97 235.85 609.79 229.97 609.79 228.97"/><polygon class="cls-4" points="620.43 234.58 619.97 234.85 619.97 235.85 620.43 235.58 620.43 234.58"/><polygon class="cls-5" points="620.43 234.58 619.97 234.85 609.83 228.99 610.29 228.72 620.43 234.58"/><polygon class="cls-6" points="634.9 214.99 636.04 216.59 645.01 221.8 643.87 220.2 634.9 214.99"/><polygon class="cls-3" points="643.62 221.41 642.81 220.94 642.67 220.88 642.52 220.83 642.36 220.81 642.18 220.82 642 220.84 641.82 220.9 641.62 220.97 641.42 221.08 641.32 221.14 641.22 221.21 641.12 221.28 641.02 221.35 640.93 221.43 640.84 221.52 640.75 221.61 640.66 221.7 640.57 221.79 640.49 221.89 640.4 221.99 640.32 222.1 640.25 222.21 640.17 222.32 640.1 222.43 640.03 222.54 639.97 222.66 639.91 222.78 639.85 222.9 639.79 223.02 639.74 223.14 639.7 223.26 639.65 223.38 639.61 223.5 639.58 223.63 639.55 223.75 639.52 223.87 639.5 224 639.48 224.12 639.47 224.24 639.46 224.36 639.46 224.47 639.47 224.7 639.5 224.91 639.55 225.1 639.61 225.27 639.7 225.42 639.79 225.55 639.91 225.66 640.03 225.75 640.37 225.94 640.37 225.94 641.36 226.51 644.13 221.71 643.62 221.41"/><path class="cls-4" d="M642.75,221.84a4.33,4.33,0,0,0-2,3.4c0,1.25.87,1.76,2,1.13a4.32,4.32,0,0,0,2-3.39C644.71,221.73,643.83,221.22,642.75,221.84Z"/><path class="cls-7" d="M642.75,223.17c.45-.26.81,0,.81.47a1.79,1.79,0,0,1-.81,1.41c-.45.26-.82,0-.82-.47A1.8,1.8,0,0,1,642.75,223.17Z"/><path class="cls-8" d="M642.75,223.34c.36-.21.66,0,.66.38a1.5,1.5,0,0,1-.66,1.16c-.37.21-.67,0-.67-.39A1.47,1.47,0,0,1,642.75,223.34Z"/><path class="cls-3" d="M642.75,223.65c.22-.13.39,0,.39.23a.88.88,0,0,1-.39.69c-.22.12-.4,0-.4-.23A.88.88,0,0,1,642.75,223.65Z"/><polygon class="cls-9" points="638.17 214.96 638.19 225.74 639.77 224.82 640.9 221.92 643.87 220.2 645.01 221.8 646.75 220.79 646.72 214.36 643.44 211.9 638.17 214.96"/><polygon class="cls-10" points="629.21 209.75 638.17 214.96 643.44 211.9 634.48 206.69 629.21 209.75"/><path class="cls-10" d="M641.27,218l4.76-2.8a.14.14,0,0,0,.07-.12L643.22,213l-1.89,1a.17.17,0,0,0-.06.06V218Z"/><path class="cls-11" d="M641.33,214.05a.17.17,0,0,0-.06.06v3.69l4.42-2.6a.12.12,0,0,0,.07-.12l-2.74-2Z"/><polygon class="cls-12" points="629.21 209.75 629.21 219.58 638.17 220.68 638.17 214.96 629.21 209.75"/><path class="cls-3" d="M646.24,214.1l.25-.15h.24l0,0,.56.32,0,0,0,0a.91.91,0,0,1,.2.24l0,.06,0,.06,0,.06,0,.06,0,.07,0,.06v1.88l0,0,0,0,0,0,0,0,0,0,0,0-.25.15,0,0-1.14-3.11Z"/><path class="cls-8" d="M646.53,214.12l.56.33a1.1,1.1,0,0,1,.46.87v1.51c0,.34-.21.5-.46.35l-.56-.32a1.12,1.12,0,0,1-.46-.88v-1.51C646.07,214.13,646.28,214,646.53,214.12Z"/><polygon class="cls-8" points="629.21 219.28 611.86 229.33 611.86 230.19 629.21 220.13 629.21 219.28"/><polygon class="cls-7" points="629.21 219.28 611.86 229.33 611.49 229.12 628.84 219.06 629.21 219.28"/><polygon class="cls-8" points="611.86 230.19 611.86 229.33 611.49 229.12 611.49 229.97 611.86 230.19"/><polygon class="cls-3" points="628.15 231.45 627.34 230.98 627.2 230.91 627.05 230.87 626.89 230.85 626.72 230.86 626.54 230.88 626.35 230.94 626.16 231.01 625.96 231.12 625.86 231.18 625.76 231.25 625.66 231.32 625.56 231.39 625.47 231.47 625.37 231.56 625.28 231.65 625.19 231.74 625.11 231.83 625.02 231.93 624.94 232.03 624.86 232.14 624.78 232.25 624.71 232.36 624.64 232.47 624.57 232.58 624.5 232.7 624.44 232.82 624.38 232.94 624.33 233.06 624.28 233.18 624.23 233.3 624.19 233.42 624.15 233.54 624.12 233.67 624.08 233.79 624.06 233.91 624.04 234.03 624.02 234.16 624.01 234.28 624 234.4 624 234.51 624.01 234.74 624.04 234.95 624.08 235.14 624.15 235.31 624.23 235.46 624.33 235.59 624.44 235.7 624.57 235.78 624.9 235.98 624.9 235.98 625.9 236.55 628.67 231.75 628.15 231.45"/><path class="cls-4" d="M627.28,231.88a4.36,4.36,0,0,0-2,3.4c0,1.25.88,1.76,2,1.13a4.3,4.3,0,0,0,2-3.39C629.24,231.77,628.37,231.26,627.28,231.88Z"/><path class="cls-7" d="M627.28,233.21c.45-.26.82-.05.82.47a1.8,1.8,0,0,1-.82,1.41c-.45.26-.81,0-.81-.47A1.79,1.79,0,0,1,627.28,233.21Z"/><path class="cls-8" d="M627.28,233.38c.37-.21.67,0,.67.38a1.49,1.49,0,0,1-.67,1.16c-.36.21-.66,0-.66-.39A1.48,1.48,0,0,1,627.28,233.38Z"/><path class="cls-3" d="M627.28,233.69c.22-.13.4,0,.4.23a.89.89,0,0,1-.4.69c-.22.12-.39,0-.39-.23A.87.87,0,0,1,627.28,233.69Z"/><polygon class="cls-11" points="630.63 231.98 636.58 228.51 636.58 226.68 630.63 230.15 630.63 231.98"/><polygon class="cls-13" points="630.63 231.98 630.63 230.15 629.01 231.09 630.63 231.98"/><path class="cls-2" d="M639.9,220.46l.68-.4a.28.28,0,0,0,.12-.23h0c0-.09-.05-.13-.12-.09l-.68.39a.3.3,0,0,0-.12.24h0C639.78,220.45,639.83,220.5,639.9,220.46Z"/><polygon class="cls-8" points="619.96 227.68 638.59 216.88 638.59 225.14 619.96 235.85 619.96 227.68"/><polygon class="cls-8" points="638.98 224.37 620.36 235.17 620.36 236.08 638.98 225.29 638.98 224.37"/><polygon class="cls-7" points="638.98 224.37 620.36 235.17 619.96 234.94 638.59 224.14 638.98 224.37"/><polygon class="cls-14" points="620.36 236.08 620.36 235.17 619.96 234.94 619.96 235.85 620.36 236.08"/><polygon class="cls-8" points="637.74 222.46 621.55 231.84 621.55 232.64 637.74 223.26 637.74 222.46"/><polygon class="cls-7" points="637.74 222.46 621.55 231.84 621.21 231.64 637.39 222.26 637.74 222.46"/><polygon class="cls-14" points="621.55 232.64 621.55 231.84 621.21 231.64 621.21 232.44 621.55 232.64"/><polygon class="cls-8" points="637.74 220.38 621.55 229.76 621.55 230.55 637.74 221.17 637.74 220.38"/><polygon class="cls-7" points="637.74 220.38 621.55 229.76 621.21 229.56 637.39 220.18 637.74 220.38"/><polygon class="cls-14" points="621.55 230.55 621.55 229.76 621.21 229.56 621.21 230.35 621.55 230.55"/><polygon class="cls-7" points="638.59 216.88 619.96 227.68 609.79 221.81 628.41 211.01 638.59 216.88"/><polygon class="cls-15" points="610.89 221.81 619.96 227.04 637.52 216.9 628.45 211.66 610.89 221.81"/><polygon class="cls-16" points="628.45 218.99 631.14 220.59 637.52 216.9 628.45 211.66 628.45 218.99"/><polygon class="cls-17" points="617.18 225.44 628.45 218.99 628.45 211.66 610.89 221.81 617.18 225.44"/><polygon class="cls-14" points="619.96 227.68 609.79 221.81 609.79 229.14 619.96 235.02 619.96 227.68"/><path class="cls-3" d="M611.51,228.73c-.26-.14-.47,0-.47.27a1,1,0,0,0,.47.8c.25.15.46,0,.46-.26A1,1,0,0,0,611.51,228.73Z"/><polygon class="cls-4" points="611.84 229.84 612 229.74 612.03 229.72 612.05 229.7 612.08 229.66 612.1 229.63 612.11 229.59 612.12 229.54 612.13 229.5 612.13 229.44 612.13 229.39 612.12 229.33 612.11 229.27 612.1 229.21 612.08 229.16 612.05 229.1 612.03 229.04 612 228.99 611.97 228.93 611.93 228.88 611.89 228.83 611.85 228.79 611.81 228.74 611.76 228.7 611.72 228.67 611.67 228.64 611.62 228.62 611.58 228.6 611.53 228.58 611.49 228.58 611.45 228.58 611.41 228.58 611.38 228.59 611.34 228.61 611.18 228.7 611.21 228.69 611.25 228.68 611.29 228.67 611.33 228.67 611.37 228.68 611.41 228.69 611.46 228.71 611.51 228.73 611.55 228.76 611.6 228.8 611.64 228.84 611.69 228.88 611.73 228.93 611.77 228.97 611.8 229.03 611.84 229.08 611.87 229.13 611.89 229.19 611.91 229.25 611.93 229.31 611.95 229.37 611.96 229.42 611.97 229.48 611.97 229.54 611.97 229.59 611.96 229.64 611.95 229.68 611.93 229.72 611.91 229.76 611.89 229.79 611.87 229.82 611.84 229.84"/><path class="cls-18" d="M611.51,228.87c-.19-.11-.35,0-.35.2a.77.77,0,0,0,.35.6c.19.1.34,0,.34-.2A.76.76,0,0,0,611.51,228.87Z"/><path class="cls-3" d="M610.61,228.34a.19.19,0,0,0-.3.18.65.65,0,0,0,.3.51c.17.1.3,0,.3-.17A.66.66,0,0,0,610.61,228.34Z"/><polygon class="cls-4" points="610.82 229.06 610.93 229 610.95 228.98 610.96 228.96 610.98 228.94 610.99 228.92 611 228.9 611.01 228.87 611.01 228.84 611.02 228.8 611.01 228.76 611.01 228.73 611 228.69 610.99 228.65 610.98 228.62 610.96 228.58 610.95 228.54 610.93 228.51 610.91 228.47 610.88 228.44 610.86 228.41 610.83 228.38 610.81 228.35 610.78 228.32 610.75 228.3 610.72 228.28 610.69 228.27 610.66 228.26 610.63 228.25 610.6 228.24 610.57 228.24 610.55 228.25 610.53 228.25 610.5 228.26 610.4 228.32 610.42 228.31 610.45 228.31 610.47 228.3 610.5 228.3 610.52 228.31 610.55 228.32 610.58 228.33 610.61 228.34 610.64 228.36 610.67 228.39 610.7 228.41 610.73 228.44 610.75 228.47 610.78 228.5 610.8 228.53 610.82 228.57 610.84 228.6 610.86 228.64 610.88 228.68 610.89 228.71 610.9 228.75 610.9 228.79 610.91 228.82 610.91 228.86 610.91 228.9 610.9 228.93 610.9 228.96 610.89 228.98 610.88 229 610.86 229.03 610.84 229.04 610.82 229.06"/><path class="cls-19" d="M610.61,228.43c-.12-.07-.22,0-.22.13a.49.49,0,0,0,.22.38c.12.08.22,0,.22-.12A.51.51,0,0,0,610.61,228.43Z"/><path class="cls-3" d="M618.05,232.52c-.26-.15-.46,0-.46.26a1,1,0,0,0,.46.81c.26.15.46,0,.46-.27A1,1,0,0,0,618.05,232.52Z"/><polygon class="cls-4" points="618.38 233.62 618.54 233.53 618.57 233.5 618.6 233.48 618.62 233.45 618.64 233.41 618.66 233.37 618.67 233.33 618.67 233.28 618.68 233.23 618.67 233.17 618.67 233.11 618.66 233.05 618.64 233 618.62 232.94 618.6 232.88 618.57 232.82 618.54 232.77 618.51 232.72 618.47 232.66 618.43 232.62 618.39 232.57 618.35 232.53 618.31 232.49 618.26 232.45 618.21 232.42 618.17 232.4 618.12 232.38 618.08 232.37 618.03 232.36 617.99 232.36 617.96 232.36 617.92 232.37 617.89 232.39 617.72 232.48 617.76 232.47 617.79 232.46 617.83 232.45 617.87 232.45 617.91 232.46 617.96 232.47 618 232.49 618.05 232.52 618.1 232.55 618.14 232.58 618.19 232.62 618.23 232.66 618.27 232.71 618.31 232.76 618.35 232.81 618.38 232.86 618.41 232.92 618.44 232.97 618.46 233.03 618.48 233.09 618.49 233.15 618.5 233.21 618.51 233.26 618.51 233.32 618.51 233.37 618.5 233.42 618.49 233.47 618.48 233.51 618.46 233.54 618.44 233.57 618.41 233.6 618.38 233.62"/><path class="cls-18" d="M618.05,232.66c-.19-.11-.34,0-.34.19a.76.76,0,0,0,.34.6c.19.11.34,0,.34-.2A.73.73,0,0,0,618.05,232.66Z"/><path class="cls-3" d="M619,233.3c-.17-.09-.3,0-.3.18a.66.66,0,0,0,.3.52.19.19,0,0,0,.3-.18A.69.69,0,0,0,619,233.3Z"/><polygon class="cls-4" points="619.25 234.02 619.36 233.96 619.38 233.94 619.39 233.93 619.41 233.91 619.42 233.88 619.43 233.86 619.44 233.83 619.44 233.8 619.44 233.76 619.44 233.73 619.44 233.69 619.43 233.65 619.42 233.61 619.41 233.58 619.39 233.54 619.38 233.5 619.36 233.47 619.33 233.43 619.31 233.4 619.29 233.37 619.26 233.34 619.23 233.31 619.21 233.29 619.17 233.26 619.14 233.24 619.11 233.23 619.08 233.22 619.05 233.21 619.03 233.2 619 233.2 618.98 233.21 618.95 233.21 618.93 233.22 618.83 233.28 618.85 233.27 618.87 233.27 618.9 233.26 618.92 233.26 618.95 233.27 618.98 233.28 619.01 233.29 619.04 233.31 619.07 233.32 619.1 233.35 619.13 233.37 619.16 233.4 619.18 233.43 619.21 233.46 619.23 233.49 619.25 233.53 619.27 233.56 619.29 233.6 619.3 233.64 619.32 233.68 619.33 233.71 619.33 233.75 619.34 233.79 619.34 233.82 619.34 233.86 619.33 233.89 619.33 233.92 619.32 233.94 619.3 233.97 619.29 233.99 619.27 234 619.25 234.02"/><path class="cls-19" d="M619,233.39c-.12-.07-.22,0-.22.13a.52.52,0,0,0,.22.39c.12.07.22,0,.22-.13A.51.51,0,0,0,619,233.39Z"/><polygon class="cls-20" points="570.76 251.64 579.36 256.61 583.95 256.33 575.35 251.36 570.76 251.64"/><path class="cls-2" d="M568,269.49l-2.47-1.42-.16-.64,1.45-.36s1.64.11,1.68.16a2.54,2.54,0,0,1,0,.39C568.46,267.67,568,269.49,568,269.49Z"/><polygon class="cls-3" points="563.42 270.09 563.43 269.99 563.44 269.89 563.45 269.79 563.47 269.68 563.49 269.58 563.52 269.48 563.55 269.38 563.58 269.27 563.62 269.17 563.66 269.07 563.7 268.97 563.75 268.87 563.79 268.77 563.85 268.67 563.9 268.57 563.96 268.48 564.02 268.38 564.08 268.29 564.14 268.2 564.21 268.11 564.28 268.03 564.35 267.94 564.42 267.86 564.5 267.79 564.57 267.71 564.65 267.64 564.73 267.57 564.81 267.51 564.89 267.45 564.98 267.4 565.06 267.35 565.23 267.26 565.39 267.19 565.55 267.15 565.7 267.13 565.84 267.12 565.98 267.14 566.1 267.18 566.22 267.23 566.76 267.54 567.32 267.86 565 271.88 564.86 271.81 564.87 271.81 564.28 271.47 564.17 271.4 564.17 271.4 563.9 271.25 563.79 271.18 563.7 271.08 563.62 270.98 563.55 270.85 563.49 270.71 563.45 270.55 563.43 270.38 563.42 270.19 563.42 270.09"/><path class="cls-4" d="M566.14,268a3.63,3.63,0,0,0-1.64,2.84c0,1.05.74,1.47,1.64.95a3.63,3.63,0,0,0,1.64-2.84C567.78,267.88,567.05,267.46,566.14,268Z"/><path class="cls-8" d="M566.16,268.65a2.33,2.33,0,0,0-1.06,1.83c0,.68.47.95,1.06.62a2.35,2.35,0,0,0,1.05-1.84C567.21,268.59,566.74,268.31,566.16,268.65Z"/><path class="cls-14" d="M566.16,268.76a2.13,2.13,0,0,0-1,1.67c0,.62.43.87,1,.56a2.15,2.15,0,0,0,1-1.67C567.12,268.7,566.69,268.45,566.16,268.76Z"/><path class="cls-3" d="M566,269.27a1,1,0,0,0-.32.34.93.93,0,0,0-.13.45.32.32,0,0,0,.13.29l.14.08a.34.34,0,0,0,.32,0,1.16,1.16,0,0,0,.32-.34.93.93,0,0,0,.13-.45.32.32,0,0,0-.13-.29l-.14-.08A.32.32,0,0,0,566,269.27Z"/><path class="cls-4" d="M566.16,269.35a.88.88,0,0,0-.32.34.84.84,0,0,0-.14.44.31.31,0,0,0,.14.3.34.34,0,0,0,.32,0,1.16,1.16,0,0,0,.32-.34.93.93,0,0,0,.13-.45.32.32,0,0,0-.13-.29A.31.31,0,0,0,566.16,269.35Z"/><path class="cls-3" d="M566.3,269.54a.22.22,0,0,0-.11.18c0,.06,0,.09.11.06a.25.25,0,0,0,.1-.18A.06.06,0,0,0,566.3,269.54Z"/><path class="cls-3" d="M566,269.73a.22.22,0,0,0-.11.18c0,.06.05.09.11,0a.23.23,0,0,0,.1-.17C566.12,269.72,566.07,269.7,566,269.73Z"/><path class="cls-3" d="M566.3,269.86a.22.22,0,0,0-.11.18c0,.06,0,.09.11.06a.25.25,0,0,0,.1-.18A.06.06,0,0,0,566.3,269.86Z"/><path class="cls-3" d="M566,270.05a.22.22,0,0,0-.11.18c0,.06.05.09.11,0a.23.23,0,0,0,.1-.17C566.12,270,566.07,270,566,270.05Z"/><path class="cls-2" d="M580.46,262.09,578,260.68l-.17-.64,1.45-.36s1.64.1,1.68.15a2.54,2.54,0,0,1,0,.39C581,260.28,580.46,262.09,580.46,262.09Z"/><polygon class="cls-3" points="575.93 262.69 575.94 262.6 575.95 262.5 575.96 262.39 575.98 262.29 576 262.19 576.03 262.08 576.06 261.98 576.09 261.88 576.13 261.78 576.17 261.67 576.21 261.57 576.25 261.47 576.3 261.37 576.36 261.27 576.41 261.18 576.47 261.08 576.53 260.99 576.59 260.89 576.65 260.81 576.72 260.72 576.79 260.63 576.86 260.55 576.93 260.47 577.01 260.39 577.08 260.32 577.16 260.25 577.24 260.18 577.32 260.12 577.4 260.06 577.49 260 577.57 259.95 577.74 259.87 577.9 259.8 578.06 259.76 578.21 259.73 578.35 259.73 578.49 259.75 578.61 259.78 578.73 259.84 579.27 260.15 579.83 260.47 577.51 264.49 577.38 264.41 577.38 264.41 576.79 264.08 576.68 264.01 576.68 264.01 576.41 263.86 576.3 263.78 576.21 263.69 576.13 263.58 576.06 263.46 576 263.31 575.96 263.16 575.94 262.98 575.93 262.79 575.93 262.69"/><path class="cls-4" d="M578.65,260.59a3.63,3.63,0,0,0-1.64,2.84c0,1,.74,1.47,1.64.94a3.6,3.6,0,0,0,1.64-2.84C580.29,260.49,579.56,260.06,578.65,260.59Z"/><path class="cls-8" d="M578.67,261.26a2.32,2.32,0,0,0-1.06,1.83c0,.68.47,1,1.06.61a2.36,2.36,0,0,0,1.06-1.83C579.73,261.19,579.25,260.92,578.67,261.26Z"/><path class="cls-14" d="M578.67,261.36a2.13,2.13,0,0,0-1,1.68c0,.61.43.86,1,.56a2.15,2.15,0,0,0,1-1.68C579.63,261.31,579.2,261.06,578.67,261.36Z"/><path class="cls-3" d="M578.53,261.88a1,1,0,0,0-.32.34.93.93,0,0,0-.13.44.33.33,0,0,0,.13.3l.14.07a.32.32,0,0,0,.32,0,1,1,0,0,0,.32-.34.93.93,0,0,0,.13-.44.3.3,0,0,0-.13-.29l-.14-.08A.32.32,0,0,0,578.53,261.88Z"/><path class="cls-4" d="M578.67,262a.81.81,0,0,0-.32.34.84.84,0,0,0-.14.44.29.29,0,0,0,.14.29.32.32,0,0,0,.32,0,1,1,0,0,0,.32-.34.93.93,0,0,0,.13-.44.3.3,0,0,0-.13-.29A.31.31,0,0,0,578.67,262Z"/><path class="cls-3" d="M578.81,262.15a.22.22,0,0,0-.11.17c0,.07,0,.1.11.06a.23.23,0,0,0,.1-.17C578.91,262.14,578.86,262.12,578.81,262.15Z"/><path class="cls-3" d="M578.53,262.34a.22.22,0,0,0-.11.17c0,.07.05.09.11.06a.24.24,0,0,0,.1-.18C578.63,262.33,578.58,262.3,578.53,262.34Z"/><path class="cls-3" d="M578.81,262.47a.22.22,0,0,0-.11.17c0,.07,0,.1.11.06a.23.23,0,0,0,.1-.17C578.91,262.46,578.86,262.44,578.81,262.47Z"/><path class="cls-3" d="M578.53,262.66a.22.22,0,0,0-.11.17c0,.07.05.09.11.06a.24.24,0,0,0,.1-.18C578.63,262.65,578.58,262.62,578.53,262.66Z"/><path class="cls-21" d="M554.18,262v-.68l.36-4.26a1.62,1.62,0,0,1,.78-.95l7.9,4.56c.2-.09.39-.17.53-.25,2.3-1.33,4.36-2.64,6.65-4s-.68.47,1.61-.86c.48-.27.66-.59,1.24-.62h.06a2.08,2.08,0,0,1,.43.34l2.6-1.51,3.15,2.37v.46l4.46-.27,0,3.73-3.14,1.82-.1.06-.11.06-.12.07,0,0v-.77c0-1.2-.84-1.69-1.88-1.09a4.16,4.16,0,0,0-1.88,3.26v.77l-.31.18-.09.06-.09.05h0l-4.91,2.88-2.86,1.78,0,0-.42.25v-.78h0c0-1.2-.84-1.68-1.88-1.08a4.14,4.14,0,0,0-1.88,3.25v.78h0l-.16.09h0l-.15.09a3.87,3.87,0,0,1-1.66.45,3,3,0,0,1-1.56-.32l-3-1.71-3-1.71a1,1,0,0,1-.54-.9V262Z"/><path class="cls-22" d="M558.44,260.57l.53.3,2.31,1.34a.47.47,0,0,1,.18.21.6.6,0,0,1,.08.29v2.47a.25.25,0,0,1-.08.2.15.15,0,0,1-.18,0L559,264.05l-.53-.31a.47.47,0,0,1-.18-.21.64.64,0,0,1-.08-.3v-2.46a.22.22,0,0,1,.08-.2A.15.15,0,0,1,558.44,260.57Z"/><path class="cls-4" d="M561.51,265.32l-.08,0L559.12,264l-.52-.31a.49.49,0,0,1-.19-.21.63.63,0,0,1-.08-.29v-2.47a.32.32,0,0,1,0-.14.13.13,0,0,1,.08,0l.53.3,2.31,1.34a.47.47,0,0,1,.18.21.6.6,0,0,1,.08.29v2.47A.32.32,0,0,1,561.51,265.32Z"/><path class="cls-22" d="M554.79,258.45l.53.3,2.3,1.33a.52.52,0,0,1,.19.22.6.6,0,0,1,.08.29v2.47a.25.25,0,0,1-.08.2.16.16,0,0,1-.19,0l-2.3-1.34-.53-.3a.56.56,0,0,1-.19-.21.64.64,0,0,1-.08-.3v-2.46a.26.26,0,0,1,.08-.21A.19.19,0,0,1,554.79,258.45Z"/><path class="cls-4" d="M557.86,263.2l-.09,0-2.3-1.33-.53-.31a.56.56,0,0,1-.19-.21.77.77,0,0,1-.07-.29v-2.47a.29.29,0,0,1,0-.14l.08,0,.53.3,2.3,1.33a.52.52,0,0,1,.19.22.6.6,0,0,1,.08.29v2.47A.32.32,0,0,1,557.86,263.2Z"/><path class="cls-22" d="M571.8,257.31l-.53.31-2.92,1.68a.49.49,0,0,0-.19.21.63.63,0,0,0-.08.29v2.47a.23.23,0,0,0,.08.2.16.16,0,0,0,.19,0l2.92-1.68.53-.3a.5.5,0,0,0,.18-.22.6.6,0,0,0,.08-.29v-2.47a.25.25,0,0,0-.08-.2A.15.15,0,0,0,571.8,257.31Z"/><path class="cls-4" d="M568.11,262.41l.09,0,2.92-1.68.53-.3a.47.47,0,0,0,.18-.21.67.67,0,0,0,.08-.3v-2.46a.33.33,0,0,0,0-.15l-.08,0-.53.31-2.92,1.68a.49.49,0,0,0-.19.21.63.63,0,0,0-.08.29v2.47A.32.32,0,0,0,568.11,262.41Z"/><path class="cls-22" d="M567.07,260l-.52.31L563.62,262a.5.5,0,0,0-.18.22.6.6,0,0,0-.08.29V265a.26.26,0,0,0,.08.21.15.15,0,0,0,.18,0l2.93-1.68.52-.31a.49.49,0,0,0,.19-.21.63.63,0,0,0,.08-.29v-2.47a.22.22,0,0,0-.08-.2A.16.16,0,0,0,567.07,260Z"/><path class="cls-4" d="M563.39,265.14l.08,0,2.92-1.68.53-.3a.6.6,0,0,0,.19-.22.6.6,0,0,0,.08-.29v-2.47a.32.32,0,0,0,0-.14.16.16,0,0,0-.09,0l-.52.31L563.62,262a.5.5,0,0,0-.18.22.6.6,0,0,0-.08.29V265A.33.33,0,0,0,563.39,265.14Z"/><path class="cls-8" d="M554.53,268.75l0,0,0,0,0,0,0,0,0,0,0,0,0,0,0,0,0,0,0,0,0,0,0,0,0,0,0,0,0,0,0,0,0,0,0,0,0,0,0,0,0-.05,0,0v-1.23l0,0,0,0,0,.05,0,0,0,0,0,0,0,0,0,0,0,0,0,0,0,0,0,0,0,0,0,0,0,0,0,0,0,0,0,0,0,0,0,0,0,0,0,0,5.94,3.43,0,0,.05,0,0,0,0,0,.05,0,0,0,.06,0,0,0,0,0H561l0,0h.06l.06,0h.11l.06,0H563l.06,0h.11l.06,0,.06,0,.06,0h.06l.05,0,.06,0,.06,0,0,0,.06,0,0,0,.06,0,.05,0,0,0,.06,0,0,0,.05,0,.21-.13v1.23l-.21.13-.05,0,0,0-.06,0,0,0-.05,0-.06,0,0,0-.06,0,0,0-.06,0-.06,0-.05,0-.06,0h-.06l-.06,0-.06,0h-.06l0,0h-1.74l-.06,0h-.11l-.06,0H561l0,0h-.06l0,0,0,0-.06,0,0,0-.05,0,0,0,0,0-.05,0,0,0-5.94-3.43Zm-.36-1.69v0Z"/><path class="cls-7" d="M554.53,267.52l5.94,3.43a3.39,3.39,0,0,0,1.77.37,4.21,4.21,0,0,0,1.83-.5l.21-.13-.38-.22,0,0a3.8,3.8,0,0,1-1.66.45,3,3,0,0,1-1.56-.32l-3-1.71-3-1.72a1,1,0,0,1-.55-.9v-.82a1.43,1.43,0,0,0-.37.77A1.3,1.3,0,0,0,554.53,267.52Z"/><polygon class="cls-4" points="556.52 268.91 558.59 270.1 558.59 270.96 556.52 269.77 556.52 268.91"/><path class="cls-23" d="M573.35,266.22l-.12.07v-11h.08l0,0Z"/><path class="cls-22" d="M554.73,256.9a1.38,1.38,0,0,1,.76-.94l2.55-1.77,8.06-4.5a2.46,2.46,0,0,1,.4-.19h0a2.41,2.41,0,0,1,2.46,0l7.38,4.28-3.4,2c-.11.11-8.72,5.26-8.72,5.26a3.53,3.53,0,0,1-1.62.44,2.74,2.74,0,0,1-1.52-.31l-2.91-1.67-2.9-1.68A.9.9,0,0,1,554.73,256.9Z"/><path class="cls-24" d="M574.19,259.16l4.56-2.69a.12.12,0,0,0,.07-.12l-2.76-2-1.82,1,0,0v3.74Z"/><path class="cls-11" d="M574.24,255.37l0,0V259l4.25-2.5a.14.14,0,0,0,.07-.12l-2.63-1.87Z"/><path class="cls-3" d="M578.41,255.36l.24-.14,0,0h.16l0,0,0,0,.54.31,0,0,0,0a.87.87,0,0,1,.19.23l0,.06,0,.05,0,.06,0,.07,0,.06,0,.06V258l0,.05,0,0,0,0,0,0,0,0,0,0-.24.14,0,0-.18-1.69-.92-1.3Z"/><path class="cls-4" d="M578.69,255.38l.54.31a1.07,1.07,0,0,1,.44.84V258c0,.32-.2.47-.44.33l-.54-.31a1.07,1.07,0,0,1-.44-.84v-1.45C578.25,255.39,578.45,255.24,578.69,255.38Z"/><path class="cls-3" d="M555.4,266.33c-.24-.14-.44,0-.44.26a1,1,0,0,0,.44.77c.25.14.45,0,.45-.26A1,1,0,0,0,555.4,266.33Z"/><polygon class="cls-4" points="555.72 267.39 555.87 267.3 555.9 267.28 555.93 267.25 555.95 267.23 555.97 267.19 555.98 267.15 556 267.11 556 267.06 556 267.01 556 266.96 556 266.9 555.98 266.85 555.97 266.79 555.95 266.73 555.93 266.68 555.9 266.63 555.87 266.57 555.84 266.52 555.81 266.47 555.77 266.42 555.73 266.38 555.69 266.34 555.65 266.3 555.6 266.27 555.56 266.24 555.51 266.21 555.47 266.2 555.43 266.19 555.38 266.18 555.35 266.18 555.31 266.18 555.27 266.19 555.24 266.21 555.09 266.3 555.12 266.28 555.15 266.27 555.19 266.27 555.23 266.27 555.27 266.28 555.31 266.29 555.36 266.31 555.4 266.33 555.45 266.36 555.49 266.39 555.53 266.43 555.58 266.47 555.61 266.51 555.65 266.56 555.68 266.61 555.72 266.66 555.75 266.71 555.77 266.77 555.79 266.82 555.81 266.88 555.83 266.94 555.84 266.99 555.85 267.05 555.85 267.1 555.85 267.15 555.84 267.2 555.83 267.24 555.81 267.28 555.79 267.31 555.77 267.34 555.75 267.37 555.72 267.39"/><path class="cls-18" d="M555.4,266.46c-.18-.1-.33,0-.33.19a.73.73,0,0,0,.33.57c.18.11.33,0,.33-.19A.74.74,0,0,0,555.4,266.46Z"/><path class="cls-3" d="M554.54,266c-.16-.1-.28,0-.28.16a.63.63,0,0,0,.28.5c.16.09.29,0,.29-.17A.62.62,0,0,0,554.54,266Z"/><polygon class="cls-4" points="554.75 266.64 554.85 266.58 554.86 266.57 554.88 266.55 554.89 266.53 554.91 266.51 554.92 266.49 554.92 266.46 554.93 266.43 554.93 266.39 554.93 266.36 554.92 266.32 554.92 266.29 554.91 266.25 554.89 266.22 554.88 266.18 554.86 266.14 554.85 266.11 554.83 266.08 554.8 266.05 554.78 266.02 554.75 265.99 554.73 265.96 554.7 265.94 554.67 265.92 554.64 265.9 554.61 265.88 554.59 265.87 554.56 265.86 554.53 265.86 554.51 265.86 554.48 265.86 554.46 265.87 554.44 265.88 554.34 265.94 554.36 265.93 554.38 265.92 554.4 265.92 554.43 265.92 554.46 265.92 554.48 265.93 554.51 265.94 554.54 265.95 554.57 265.97 554.6 266 554.63 266.02 554.65 266.05 554.68 266.07 554.7 266.1 554.73 266.14 554.75 266.17 554.76 266.2 554.78 266.24 554.79 266.27 554.81 266.31 554.82 266.35 554.82 266.38 554.83 266.42 554.83 266.45 554.83 266.49 554.82 266.52 554.82 266.54 554.81 266.57 554.79 266.59 554.78 266.61 554.76 266.63 554.75 266.64"/><path class="cls-19" d="M554.54,266c-.12-.07-.21,0-.21.12a.46.46,0,0,0,.21.37c.12.07.21,0,.21-.12A.46.46,0,0,0,554.54,266Z"/><path class="cls-3" d="M560.45,269.16c-.24-.14-.44,0-.44.26a1,1,0,0,0,.44.77c.25.14.45,0,.45-.26A1,1,0,0,0,560.45,269.16Z"/><polygon class="cls-4" points="560.77 270.22 560.93 270.13 560.96 270.11 560.98 270.09 561 270.06 561.02 270.02 561.04 269.99 561.05 269.94 561.05 269.9 561.06 269.85 561.05 269.79 561.05 269.74 561.04 269.68 561.02 269.62 561 269.57 560.98 269.51 560.96 269.46 560.93 269.41 560.89 269.35 560.86 269.31 560.82 269.26 560.78 269.21 560.74 269.17 560.7 269.13 560.66 269.1 560.61 269.07 560.57 269.05 560.52 269.03 560.48 269.02 560.44 269.01 560.4 269.01 560.36 269.02 560.33 269.03 560.3 269.04 560.14 269.13 560.17 269.12 560.21 269.11 560.24 269.1 560.28 269.1 560.32 269.11 560.37 269.12 560.41 269.14 560.46 269.16 560.5 269.19 560.54 269.23 560.59 269.26 560.63 269.3 560.67 269.35 560.7 269.39 560.74 269.44 560.77 269.5 560.8 269.55 560.82 269.6 560.85 269.66 560.87 269.71 560.88 269.77 560.89 269.83 560.9 269.88 560.9 269.94 560.9 269.99 560.89 270.03 560.88 270.08 560.87 270.12 560.85 270.15 560.82 270.18 560.8 270.2 560.77 270.22"/><path class="cls-18" d="M560.45,269.3c-.18-.11-.33,0-.33.19a.74.74,0,0,0,.33.57c.19.1.33,0,.33-.19A.7.7,0,0,0,560.45,269.3Z"/><path class="cls-3" d="M561.4,269.92c-.15-.09-.28,0-.28.17a.64.64,0,0,0,.28.49c.16.1.29,0,.29-.16A.63.63,0,0,0,561.4,269.92Z"/><polygon class="cls-4" points="561.61 270.6 561.71 270.55 561.73 270.53 561.74 270.52 561.76 270.5 561.77 270.48 561.78 270.45 561.79 270.42 561.79 270.39 561.79 270.36 561.79 270.32 561.79 270.29 561.78 270.25 561.77 270.22 561.76 270.18 561.74 270.15 561.73 270.11 561.71 270.08 561.69 270.04 561.66 270.01 561.64 269.98 561.62 269.95 561.59 269.93 561.56 269.9 561.53 269.88 561.5 269.86 561.48 269.85 561.45 269.84 561.42 269.83 561.39 269.82 561.37 269.82 561.34 269.83 561.32 269.83 561.3 269.84 561.2 269.9 561.22 269.89 561.24 269.88 561.27 269.88 561.29 269.88 561.32 269.89 561.35 269.89 561.38 269.9 561.4 269.92 561.43 269.94 561.46 269.96 561.49 269.99 561.52 270.01 561.54 270.04 561.57 270.07 561.59 270.1 561.61 270.13 561.63 270.17 561.64 270.2 561.66 270.24 561.67 270.28 561.68 270.31 561.68 270.35 561.69 270.38 561.69 270.42 561.69 270.45 561.68 270.48 561.68 270.51 561.67 270.53 561.66 270.56 561.64 270.57 561.63 270.59 561.61 270.6"/><path class="cls-19" d="M561.4,270c-.11-.07-.21,0-.21.12a.49.49,0,0,0,.21.37c.12.07.22,0,.22-.13A.45.45,0,0,0,561.4,270Z"/><path class="cls-2" d="M574.21,260.36l.67-.38a.31.31,0,0,0,.12-.23h0c0-.09-.06-.13-.12-.09l-.67.39a.26.26,0,0,0-.12.22h0C574.09,260.36,574.14,260.4,574.21,260.36Z"/><polygon class="cls-14" points="583 259.76 583 260.98 583.37 261.2 583.37 259.98 583 259.76"/><polygon class="cls-8" points="583.37 259.98 583.37 261.19 583.41 261.17 583.46 261.15 583.5 261.12 583.54 261.1 583.58 261.07 583.62 261.05 583.66 261.02 583.7 260.99 583.74 260.96 583.78 260.94 583.82 260.9 583.86 260.87 583.89 260.84 583.93 260.81 583.96 260.77 584 260.73 584.03 260.7 584.06 260.66 584.09 260.62 584.12 260.57 584.14 260.53 584.17 260.49 584.19 260.44 584.21 260.39 584.23 260.35 584.25 260.3 584.27 260.24 584.28 260.19 584.3 260.14 584.31 260.08 584.32 260.02 584.33 259.96 584.33 259.92 584.33 259.89 584.33 259.85 584.33 258.64 584.33 258.67 584.33 258.71 584.33 258.75 584.32 258.81 584.31 258.87 584.3 258.92 584.28 258.98 584.27 259.03 584.25 259.08 584.23 259.13 584.21 259.18 584.19 259.23 584.17 259.27 584.14 259.32 584.12 259.36 584.09 259.4 584.06 259.44 584.03 259.48 584 259.52 583.96 259.56 583.93 259.59 583.89 259.63 583.86 259.66 583.82 259.69 583.78 259.72 583.74 259.75 583.7 259.78 583.66 259.81 583.62 259.83 583.58 259.86 583.54 259.89 583.5 259.91 583.46 259.93 583.41 259.95 583.37 259.98"/><path class="cls-7" d="M583,259.76l.38.22a1.54,1.54,0,0,0,1-1.23,1.19,1.19,0,0,0-.38-1v.95c0,.34-.3.68-.77.95Z"/><path class="cls-25" d="M561.52,87.53a1.83,1.83,0,0,1,0-.33,1.41,1.41,0,0,1,0-.21h0a1.1,1.1,0,0,1,0-.18v0a.83.83,0,0,1,0-.15v0a.5.5,0,0,1,0-.13v0l.08-.13a1,1,0,0,1,.12-.16l0,0A.79.79,0,0,1,562,86l-9,5.21a.79.79,0,0,0-.15.12l0,0-.12.16h0a.54.54,0,0,0-.07.13h0v0a.2.2,0,0,0,0,.08s0,0,0,0v0l0,.09V92s0,.06,0,.09v.27h0v.17s0,.06,0,.09a.25.25,0,0,0,0,.08h0s0,.06,0,.09,0,.06,0,.1a.44.44,0,0,0,0,.1v0l9-5.21a2,2,0,0,1-.06-.34Z"/><path class="cls-25" d="M574.64,95.11c0-.11,0-.23,0-.34a1.27,1.27,0,0,1,0-.2v0c0-.06,0-.12,0-.17v0a.75.75,0,0,1,0-.16v0a.78.78,0,0,1,0-.14h0a.54.54,0,0,1,.07-.13,1,1,0,0,1,.13-.16l0,0a.91.91,0,0,1,.16-.11l-9,5.2-.16.12,0,0a1,1,0,0,0-.13.16h0a.83.83,0,0,0-.07.13h0l0,.09v.09a.36.36,0,0,0,0,.1v.09a.28.28,0,0,0,0,.09v.05h0v0a.19.19,0,0,0,0,.08V100h0v.16a.28.28,0,0,1,0,.09s0,.06,0,.08h0s0,.06,0,.09,0,.06,0,.1,0,.06,0,.1v.06l9-5.21-.06-.35Z"/><g class="cls-1"><path class="cls-26" d="M554.13,91.17l.07,0h.6l.08,0h0l.1,0h0l0,0,.14.07.14.09,0,0,.09.07,0,0,.09.08,0,0,0,0,0,0a.94.94,0,0,0,.1.1l0,0,0,0,.06.07,0,0,0,0,0,.06,0,0,0,.06,0,0v0a.83.83,0,0,1,.08.12h0v0a.41.41,0,0,1,.05.09l0,0,0,0,0,0,.05.11v0h0l.06.14v0l0,0s0,0,0,.07l0,0,0,.06v0s0,0,0,.07,0,.05,0,.08v0a.13.13,0,0,0,0,.06.5.5,0,0,0,0,.12v0a.22.22,0,0,1,0,.08v.05c0,.06,0,.11,0,.17a1,1,0,0,1-.43,1l-.94.57a1.06,1.06,0,0,0,.43-1c0-.06,0-.11,0-.17s0,0,0,0,0-.07,0-.11l0-.12s0,0,0-.08a.24.24,0,0,1,0-.08l0-.1s0,0,0-.07l0-.12,0,0c0-.06-.05-.11-.07-.17v0a.91.91,0,0,0-.07-.14l0,0-.08-.13v0l-.1-.15,0,0-.07-.11,0-.06-.07-.08,0-.07-.06-.07-.1-.1-.07-.06s0,0-.05,0l-.09-.07s0,0-.05,0l-.09-.07-.05,0-.14-.09-.14-.07h0l-.13,0h0l-.11,0-.06,0h-.38l-.08,0h0l-.09,0,.94-.56Z"/><path class="cls-11" d="M554.25,91.83a3.32,3.32,0,0,1,1.53,2.58c0,1-.67,1.34-1.5.88a3.31,3.31,0,0,1-1.53-2.58C552.74,91.76,553.41,91.36,554.25,91.83Z"/></g><g class="cls-1"><path class="cls-27" d="M554.26,92.66a1.74,1.74,0,0,1,.79,1.34c0,.5-.34.7-.78.46a1.73,1.73,0,0,1-.79-1.34C553.47,92.62,553.82,92.42,554.26,92.66Z"/></g><g class="cls-1"><path class="cls-26" d="M567.26,98.79l.08,0h.5l.06,0h0l.07,0h0l.09,0,0,0h0l.14.07.14.09,0,0,.09.07a.1.1,0,0,1,0,0l.09.07,0,0,0,0,0,0,.1.1,0,0,0,0,.06.07,0,0,0,0a.1.1,0,0,1,0,.05l0,0,0,.07,0,0v0l.08.12h0v0a.41.41,0,0,1,.05.09l0,0,0,0,0,0s0,.07.05.1v0h0l.06.13v.08l0,.06s0,0,0,.06l0,.06v0a.14.14,0,0,0,0,.06.19.19,0,0,0,0,.08v0a.09.09,0,0,1,0,.05.5.5,0,0,1,0,.12v0s0,0,0,.07v.05a1,1,0,0,1,0,.17,1.06,1.06,0,0,1-.42,1l-.94.56a1.06,1.06,0,0,0,.42-1,1,1,0,0,0,0-.17v0s0-.07,0-.11a.5.5,0,0,0,0-.12s0,0,0-.08a.19.19,0,0,1,0-.07l0-.11a.14.14,0,0,1,0-.06l0-.12v0a1.22,1.22,0,0,1-.07-.17h0l-.07-.15,0,0-.07-.14,0,0-.09-.16,0,0-.08-.11,0,0-.07-.09-.06-.07L568,100l-.1-.11-.06-.06-.05,0-.09-.07-.05,0-.1-.07s0,0,0,0l-.15-.08-.13-.07,0,0-.13,0h0l-.11,0h-.06l-.08,0h-.16l-.11,0h0l-.08,0h0l-.1,0,.94-.56Z"/><path class="cls-11" d="M567.38,99.45a3.27,3.27,0,0,1,1.53,2.57c0,1-.66,1.35-1.49.88a3.29,3.29,0,0,1-1.53-2.58C565.88,99.37,566.55,99,567.38,99.45Z"/></g><g class="cls-1"><path class="cls-27" d="M567.39,100.28a1.71,1.71,0,0,1,.8,1.33c0,.5-.35.7-.78.46a1.71,1.71,0,0,1-.79-1.34C566.61,100.24,567,100,567.39,100.28Z"/></g><polygon class="cls-28" points="549.78 88.36 558.74 83.15 561.24 83.14 552.28 88.34 549.78 88.36"/><polygon class="cls-29" points="552.28 88.34 561.24 83.14 565.86 85.8 556.9 91.01 552.28 88.34"/><polygon class="cls-28" points="556.9 91.01 565.86 85.8 569.99 85.98 561.03 91.18 556.9 91.01"/><path class="cls-26" d="M567.51,86.38l-1.28,0a.83.83,0,0,0-.46.11l-6.48,3.77a.21.21,0,0,0,.09.4l1.28,0a.76.76,0,0,0,.46-.12l6.49-3.76A.22.22,0,0,0,567.51,86.38Z"/><polygon class="cls-29" points="561.03 91.18 569.99 85.98 576.67 89.83 567.71 95.04 561.03 91.18"/><polygon class="cls-30" points="572.57 101.89 581.53 96.68 579.92 98.47 570.97 103.68 572.57 101.89"/><polygon class="cls-28" points="572.57 100.06 581.53 94.85 581.53 96.68 572.57 101.89 572.57 100.06"/><polygon class="cls-31" points="567.71 95.04 576.67 89.83 581.53 94.85 572.57 100.06 567.71 95.04"/><path class="cls-26" d="M580,94l-3-3a.81.81,0,0,0-1-.14l-6.58,3.82a.83.83,0,0,0-.18,1.29l3,3a.82.82,0,0,0,1,.14l6.58-3.82A.83.83,0,0,0,580,94Z"/><path class="cls-32" d="M567.71,95l4.86,5v1.83L571,103.68l-1.7-1a1.78,1.78,0,0,0,.09-.59,4.07,4.07,0,0,0-1.84-3.19c-1-.59-1.85-.11-1.85,1.06a3.4,3.4,0,0,0,.08.69l-9.6-5.55a2,2,0,0,0,.09-.59,4,4,0,0,0-1.84-3.18c-1-.59-1.85-.12-1.85,1.05a3.32,3.32,0,0,0,.08.69l-1.49-.86-1.35-2.36V88.35h2.5L556.9,91l4.14.17Z"/><polygon class="cls-27" points="571.76 92.68 565.08 88.83 563.4 89.81 570.08 93.66 571.76 92.68"/><polygon class="cls-27" points="568.02 87.13 566.34 88.1 573.01 91.96 574.69 90.98 568.02 87.13"/><polygon class="cls-27" points="560.98 88.64 556.36 85.97 554.68 86.95 559.3 89.61 560.98 88.64"/><polygon class="cls-27" points="559.3 84.27 557.61 85.25 562.23 87.91 563.91 86.93 559.3 84.27"/><path class="cls-33" d="M563.65,95.16l-.71-.42a.31.31,0,0,1-.13-.24h0c0-.1.06-.14.13-.1l.71.42a.31.31,0,0,1,.13.24h0C563.78,95.16,563.72,95.2,563.65,95.16Z"/><path class="cls-26" d="M560.58,91.67l-1.44-.06a.12.12,0,0,0-.06.22l4.79,2.77V93.41l-2.72-1.57A1.26,1.26,0,0,0,560.58,91.67Z"/><path class="cls-26" d="M569.43,97.54l-1.92-2a1.13,1.13,0,0,0-.27-.22l-3.15-1.82v1.19l5.19,3A.12.12,0,0,0,569.43,97.54Z"/><path class="cls-34" d="M572.38,100.24h0a.37.37,0,0,0,.29,0l.46-.28a.39.39,0,0,1,.58.29l0,.52a.38.38,0,0,1-.18.36l-.78.47a.36.36,0,0,1-.36,0l-.33-.15a.4.4,0,0,1-.22-.35v-.47A.39.39,0,0,1,572.38,100.24Z"/><path class="cls-34" d="M581.53,95.22a1.1,1.1,0,0,1,.06,1.14l-.53.36a.17.17,0,0,1-.26-.14V96a.55.55,0,0,1,.24-.46Z"/><path class="cls-32" d="M552.9,86.75l.07,0-.89-.52h-.16l.9.52.08,0Z"/><polygon class="cls-30" points="551.44 87.83 550.54 87.31 550.54 87.91 551.44 87.83"/><polygon class="cls-29" points="551.92 86.26 550.76 86.94 551.65 87.45 552.82 86.78 551.92 86.26"/><path class="cls-30" d="M553,86.91c0-.14-.1-.2-.22-.13l-1.17.68a.45.45,0,0,0-.21.37Z"/><path class="cls-28" d="M551.45,87.72a.47.47,0,0,1,0-.1h0a.22.22,0,0,1,.07-.09h0s0,0,.08-.06l-.89-.53-.08.06h0l0,0v0h0v.08h0v.1l.9.52a.45.45,0,0,1,0-.11Z"/><path class="cls-32" d="M559.05,83.18a.1.1,0,0,1,.07,0l-.9-.53h-.12l0,0,.9.52a.16.16,0,0,1,.09,0Z"/><polygon class="cls-30" points="557.58 84.26 556.68 83.74 556.69 84.34 557.58 84.26"/><polygon class="cls-29" points="558.07 82.69 556.9 83.36 557.8 83.88 558.96 83.21 558.07 82.69"/><path class="cls-30" d="M559.18,83.33c0-.13-.1-.19-.22-.12l-1.16.67a.49.49,0,0,0-.22.38Z"/><path class="cls-28" d="M557.6,84.15a.49.49,0,0,1,0-.11h0l.07-.09h0l.09-.07-.9-.52-.07.06h0v0l0,0v0h0v.1h0v0s0,0,0,0l.9.52a.43.43,0,0,1,0-.11Z"/><path class="cls-25" d="M393,4.93a1.09,1.09,0,0,1,0-.18h0a.77.77,0,0,1,0-.15v0a.65.65,0,0,1,0-.13v0l.05-.12h0a.41.41,0,0,1,.07-.11.71.71,0,0,1,.1-.14l0,0,.14-.1h0l-7.67,4.46-.13.1,0,0a.69.69,0,0,0-.11.13h0l-.06.1h0l0,.07v.09a.31.31,0,0,1,0,.08V9h0v0a.22.22,0,0,0,0,.08v.06h0s0,0,0,.08v.07h0v.07a.22.22,0,0,0,0,.08v.08s0,0,0,.06h0s0,.05,0,.08a.17.17,0,0,1,0,.07s0,.06,0,.08V10h0l7.67-4.46a2.47,2.47,0,0,1-.06-.29h0A2.62,2.62,0,0,1,393,4.93Z"/><path class="cls-25" d="M404.28,11.7c0-.1,0-.2,0-.29s0-.12,0-.18h0c0-.05,0-.1,0-.15v0l0-.13v0s0-.08,0-.11v0l.06-.11a1.34,1.34,0,0,1,.11-.14l0,0a.69.69,0,0,1,.13-.11l-7.66,4.46-.14.1,0,0a.64.64,0,0,0-.1.13h0l-.06.1h0l0,.07,0,0v.05a.19.19,0,0,0,0,.08v.07s0,0,0,.08v.23h0V16a.17.17,0,0,0,0,.07.22.22,0,0,0,0,.08h0a.15.15,0,0,0,0,.07s0,.06,0,.08,0,.06,0,.09v.06L404.34,12a1.59,1.59,0,0,1-.06-.3Z"/><g class="cls-1"><path class="cls-26" d="M386.8,8.29l.06,0h.51l.07,0h0l.08,0,0,0h0l.11.06.13.08,0,0,.08.06,0,0,.08.06,0,0,0,0,0,0,.09.09,0,0,0,0,.05.06,0,0,0,0,0,0,0,0a.21.21,0,0,1,0,.06l0,0v0l.07.11h0v0l.05.07,0,0,0,0v0l0,.09v0h0l0,.12v0l0,0,0,.06a.06.06,0,0,1,0,0l0,.06v0s0,0,0,.06,0,0,0,.06v.07s0,.07,0,.11v0a.2.2,0,0,1,0,.07v0a.71.71,0,0,1,0,.14.87.87,0,0,1-.36.83l-.81.49a.92.92,0,0,0,.37-.83c0-.05,0-.1,0-.15v0a.28.28,0,0,0,0-.09.43.43,0,0,0,0-.11s0,0,0-.07l0-.06s0-.06,0-.09l0-.06,0-.1v0l-.06-.14v0l-.06-.12,0,0-.06-.11v0l-.09-.13,0,0-.07-.09,0,0-.06-.08-.05-.06s0,0-.05,0l-.09-.09-.05-.06-.05,0-.07-.06-.05,0L387.06,9l0,0-.12-.08-.12-.06h0l-.11,0h0l-.09,0h-.38l-.07,0h0l-.09,0,.81-.48Z"/><path class="cls-11" d="M386.9,8.85a2.85,2.85,0,0,1,1.31,2.21c0,.81-.57,1.15-1.28.75a2.82,2.82,0,0,1-1.31-2.21C385.61,8.79,386.18,8.45,386.9,8.85Z"/></g><g class="cls-1"><path class="cls-27" d="M386.91,9.56a1.49,1.49,0,0,1,.68,1.15c0,.42-.3.59-.67.39a1.49,1.49,0,0,1-.68-1.15C386.24,9.53,386.53,9.35,386.91,9.56Z"/></g><g class="cls-1"><path class="cls-26" d="M398,14.8l.06,0h.51l.07,0h0l.08,0h0l0,0,.11.06.13.07,0,0,.08.06,0,0,.08.07,0,0,0,0,0,0,.09.09,0,0,0,0,0,.06,0,0,0,0,0,.05,0,0a.21.21,0,0,1,0,.06l0,0h0l.07.11h0v0a.56.56,0,0,1,.05.08l0,0,0,0v0a.93.93,0,0,0,0,.1h0s0,.07,0,.11v0l0,0s0,0,0,.06,0,0,0,.05l0,.05v0s0,0,0,.06,0,0,0,.07v0a.09.09,0,0,0,0,.05.44.44,0,0,0,0,.1v0a.13.13,0,0,1,0,.06V17a.61.61,0,0,1,0,.14.89.89,0,0,1-.36.83l-.81.48a.92.92,0,0,0,.37-.83c0-.05,0-.09,0-.14v-.05a.28.28,0,0,0,0-.09.36.36,0,0,0,0-.1s0-.05,0-.07,0-.05,0-.07,0-.06,0-.09l0-.05a.3.3,0,0,0,0-.1v0l-.06-.14h0l-.06-.13,0,0-.06-.11,0,0a.57.57,0,0,0-.08-.13l0,0-.07-.09,0-.05-.06-.07-.05-.06-.05-.06-.09-.09-.06-.05,0,0-.07-.06-.05,0-.08-.06,0,0-.12-.07a.34.34,0,0,0-.12-.06l0,0-.11,0h0l-.09,0h-.38l-.07,0h0l-.09,0,.81-.48Z"/><path class="cls-11" d="M398.14,15.37a2.83,2.83,0,0,1,1.31,2.2c0,.82-.57,1.15-1.28.75a2.82,2.82,0,0,1-1.31-2.2C396.85,15.3,397.42,15,398.14,15.37Z"/></g><g class="cls-1"><path class="cls-27" d="M398.15,16.08a1.47,1.47,0,0,1,.68,1.14c0,.42-.3.6-.67.39a1.49,1.49,0,0,1-.68-1.14C397.48,16,397.77,15.87,398.15,16.08Z"/></g><polygon class="cls-35" points="382.63 4.45 390.3 0 394.47 0.51 386.8 4.97 382.63 4.45"/><path class="cls-26" d="M392.47.71,390.68.49a.82.82,0,0,0-.55.11l-5.58,3.24a.23.23,0,0,0,.09.42l1.78.22a.82.82,0,0,0,.55-.11l5.58-3.24A.23.23,0,0,0,392.47.71Z"/><polygon class="cls-36" points="386.8 4.97 394.47 0.51 400.18 3.81 392.51 8.27 386.8 4.97"/><polygon class="cls-35" points="392.51 8.27 400.18 3.81 403.71 7.74 396.04 12.2 392.51 8.27"/><path class="cls-26" d="M402.73,7.3l-2.44-2.71a.38.38,0,0,0-.46-.08l-6.25,3.64a.37.37,0,0,0-.09.56l2.44,2.71a.37.37,0,0,0,.46.07l6.25-3.63A.37.37,0,0,0,402.73,7.3Z"/><polygon class="cls-37" points="402.12 18.25 409.78 13.79 408.62 14.47 400.96 18.93 402.12 18.25"/><polygon class="cls-36" points="396.04 12.2 403.71 7.74 407.66 10.02 399.99 14.48 396.04 12.2"/><path class="cls-38" d="M392.51,8.26,396,12.2,400,14.48,402.12,17v1.3l-1.16.68-1.28-.74a1.61,1.61,0,0,0,.07-.51A3.44,3.44,0,0,0,398.18,15c-.87-.5-1.58-.1-1.58.9a2.44,2.44,0,0,0,.07.59l-8.22-4.74a1.6,1.6,0,0,0,.08-.51A3.45,3.45,0,0,0,387,8.48c-.87-.51-1.58-.1-1.58.9a3.06,3.06,0,0,0,.07.59L384,9.13,382.63,6V4.45L386.8,5Z"/><polygon class="cls-39" points="402.12 16.95 409.79 12.49 409.78 13.79 402.12 18.25 402.12 16.95"/><polygon class="cls-35" points="399.99 14.48 407.66 10.02 409.79 12.49 402.12 16.95 399.99 14.48"/><path class="cls-33" d="M390.06,9.2l-.61-.36a.26.26,0,0,1-.11-.21h0c0-.08.05-.11.11-.08l.61.36a.26.26,0,0,1,.11.21h0C390.17,9.2,390.12,9.23,390.06,9.2Z"/><path class="cls-39" d="M402.34,15.25l-.92-.53c0,.32,1.22,1.2,1.22,1.2A.74.74,0,0,1,402.34,15.25Z"/><path class="cls-38" d="M404,14.28c.19-.1.33,0,.33.19v.43a.68.68,0,0,1-.33.57l-.64.37c-.57.33-1,.07-1-.59Z"/><path class="cls-40" d="M402.91,15.77c-.25,0-.32-.22-.34-.4l1.57-.9v.43a.54.54,0,0,1-.23.39l-.64.37A.78.78,0,0,1,402.91,15.77Z"/><path class="cls-36" d="M404.1,14.25h.11l.05,0-.93-.54h-.18l0,0-1.68,1,.92.53,1.68-1,.07,0Z"/><path class="cls-38" d="M408.8,11.52a2.26,2.26,0,0,1-1,1.79l-.64.37c-.19.11-.34,0-.34-.19v-.43a.74.74,0,0,1,.33-.57Z"/><path class="cls-40" d="M407,13.06a.54.54,0,0,1,.22-.38l1.3-.75a2.1,2.1,0,0,1-.87,1.19l-.65.38Z"/><path class="cls-36" d="M406.8,13a.25.25,0,0,1,0-.07h0l0-.07h0a.2.2,0,0,1,0-.08h0a.43.43,0,0,1,0-.07h0l.05-.06h0l0,0a.39.39,0,0,1,.1-.08l1.68-1-.92-.54-1.68,1-.1.07h0l0,0h0l0,0h0l0,0v0h0v.08h0v.08h0v.08h0l1,1.25a.23.23,0,0,1-.1-.21v-.43a.25.25,0,0,1,0-.08Z"/><path class="cls-26" d="M389.24,6.88l-2.35-1.36a1.23,1.23,0,0,0-.49-.16l-1.84-.23a.11.11,0,0,0-.07.2l4.75,2.74Z"/><path class="cls-26" d="M394,10.58l-1.64-1.82a1.3,1.3,0,0,0-.31-.26L389.43,7V8.18l4.44,2.56A.11.11,0,0,0,394,10.58Z"/><path class="cls-4" d="M27,172.42l-.22-.13h-.18l0,0,0,0-.49.28-.05,0,0,0a1.12,1.12,0,0,0-.17.21l0,.06,0,0,0,.05,0,.06,0,.06v1.75l0,0,0,0,0,0,0,0,0,0,.22.13,0,0,1-2.74Z"/><path class="cls-3" d="M26.72,172.45l-.49.28a1,1,0,0,0-.41.77v1.34c0,.29.18.43.41.3l.49-.28a1,1,0,0,0,.4-.78v-1.33C27.12,172.45,26.94,172.32,26.72,172.45Z"/><path class="cls-25" d="M12.28,171.28a1,1,0,0,1,0-.18v0c0-.06,0-.11,0-.16v0s0-.1.05-.14h0a.64.64,0,0,1,.08-.14,1.09,1.09,0,0,1,.13-.17l0,0,.16-.13-9.32,5.42a1,1,0,0,0-.16.12l0,0c0,.05-.09.1-.13.16h0a.83.83,0,0,0-.07.13h0a.36.36,0,0,0,0,.09s0,0,0,.05v0l0,.1v.1s0,.06,0,.09,0,0,0,.05v0s0,.06,0,.09v.09H3l9.32-5.41a1.34,1.34,0,0,1,0-.21Z"/><path class="cls-25" d="M25.82,179.09a1.1,1.1,0,0,1,0-.18v0a.75.75,0,0,1,0-.16v0a.5.5,0,0,1,.05-.13v0a.61.61,0,0,1,.07-.14,1.07,1.07,0,0,1,.14-.16l0,0a1,1,0,0,1,.16-.12l-9.31,5.41-.17.13,0,0a1,1,0,0,0-.13.16h0s-.05.08-.07.13h0v0l0,.09s0,0,0,.05v0a.3.3,0,0,0,0,.1v.09s0,.06,0,.09v.06h0v.21h0l9.31-5.41c0-.07,0-.14,0-.21Z"/><polygon class="cls-33" points="20.79 186.34 20.78 186.24 20.77 186.14 20.76 186.04 20.74 185.94 20.72 185.84 20.7 185.74 20.67 185.64 20.63 185.54 20.6 185.43 20.56 185.33 20.52 185.23 20.47 185.13 20.42 185.04 20.37 184.94 20.32 184.84 20.26 184.75 20.2 184.66 20.14 184.56 20.08 184.48 20.01 184.39 19.95 184.31 19.88 184.22 19.8 184.15 19.73 184.07 19.66 184 19.58 183.93 19.5 183.86 19.42 183.8 19.34 183.74 19.26 183.69 19.17 183.63 19.01 183.55 18.85 183.48 18.69 183.44 18.54 183.42 18.4 183.41 18.27 183.43 18.14 183.47 18.03 183.52 17.5 183.83 16.95 184.15 19.24 188.11 19.37 188.03 19.37 188.04 19.94 187.71 20.05 187.64 20.05 187.64 20.32 187.49 20.42 187.41 20.52 187.32 20.6 187.22 20.67 187.09 20.72 186.95 20.76 186.8 20.78 186.62 20.79 186.44 20.79 186.34"/><ellipse class="cls-11" cx="18.11" cy="186.13" rx="1.32" ry="2.29" transform="translate(-90.64 33.99) rotate(-30)"/><path class="cls-8" d="M18.09,184.92a2.31,2.31,0,0,1,1.05,1.81c0,.67-.47.94-1.05.6a2.31,2.31,0,0,1-1-1.8C17.05,184.86,17.52,184.59,18.09,184.92Z"/><path class="cls-41" d="M18.09,185a2.09,2.09,0,0,1,1,1.65c0,.61-.43.85-1,.55a2.13,2.13,0,0,1-.95-1.65C17.14,185,17.57,184.72,18.09,185Z"/><path class="cls-7" d="M18.23,185.54a.9.9,0,0,1,.31.33.93.93,0,0,1,.13.44.32.32,0,0,1-.13.29l-.13.07a.32.32,0,0,1-.32,0,.9.9,0,0,1-.31-.33.93.93,0,0,1-.13-.44.32.32,0,0,1,.13-.29l.13-.08A.32.32,0,0,1,18.23,185.54Z"/><path class="cls-8" d="M18.09,185.61a.88.88,0,0,1,.32.34.9.9,0,0,1,.13.44.29.29,0,0,1-.13.28.32.32,0,0,1-.32,0,.9.9,0,0,1-.31-.33.93.93,0,0,1-.13-.44.32.32,0,0,1,.13-.29A.3.3,0,0,1,18.09,185.61Z"/><path class="cls-41" d="M18,185.8a.21.21,0,0,1,.1.18c0,.06,0,.09-.1.05a.23.23,0,0,1-.1-.17A.06.06,0,0,1,18,185.8Z"/><path class="cls-41" d="M18.23,186a.21.21,0,0,1,.1.17c0,.06,0,.09-.1.06a.24.24,0,0,1-.1-.18C18.13,186,18.18,186,18.23,186Z"/><path class="cls-41" d="M18,186.12a.21.21,0,0,1,.1.17c0,.06,0,.09-.1.06a.24.24,0,0,1-.1-.18C17.85,186.11,17.9,186.08,18,186.12Z"/><path class="cls-41" d="M18.23,186.3a.21.21,0,0,1,.1.18c0,.06,0,.09-.1.05a.23.23,0,0,1-.1-.17A.06.06,0,0,1,18.23,186.3Z"/><polygon class="cls-33" points="7.25 178.58 7.25 178.49 7.24 178.39 7.22 178.28 7.21 178.19 7.18 178.08 7.16 177.98 7.13 177.88 7.1 177.78 7.06 177.68 7.02 177.58 6.98 177.48 6.94 177.38 6.89 177.28 6.84 177.18 6.78 177.09 6.73 176.99 6.67 176.9 6.61 176.81 6.54 176.72 6.48 176.63 6.41 176.55 6.34 176.47 6.27 176.39 6.2 176.31 6.12 176.24 6.04 176.17 5.96 176.1 5.88 176.04 5.8 175.98 5.72 175.93 5.64 175.88 5.47 175.79 5.31 175.73 5.16 175.68 5.01 175.66 4.87 175.66 4.73 175.68 4.61 175.71 4.5 175.76 3.96 176.07 3.41 176.39 5.7 180.35 5.83 180.28 5.83 180.28 6.4 179.95 6.52 179.88 6.52 179.88 6.78 179.73 6.89 179.66 6.98 179.57 7.06 179.46 7.13 179.34 7.18 179.19 7.22 179.04 7.25 178.87 7.26 178.68 7.25 178.58"/><ellipse class="cls-11" cx="4.57" cy="178.37" rx="1.32" ry="2.29" transform="translate(-88.57 26.18) rotate(-30)"/><path class="cls-8" d="M4.56,177.17a2.31,2.31,0,0,1,1,1.8c0,.67-.47.94-1,.61a2.33,2.33,0,0,1-1-1.81C3.51,177.1,4,176.83,4.56,177.17Z"/><path class="cls-41" d="M4.56,177.27a2.11,2.11,0,0,1,1,1.65c0,.61-.43.86-1,.55a2.09,2.09,0,0,1-1-1.65C3.6,177.21,4,177,4.56,177.27Z"/><path class="cls-7" d="M4.69,177.78a1,1,0,0,1,.32.33.93.93,0,0,1,.13.44.32.32,0,0,1-.13.29l-.14.08a.32.32,0,0,1-.31,0,.88.88,0,0,1-.32-.34.9.9,0,0,1-.13-.44.32.32,0,0,1,.13-.29l.13-.07A.32.32,0,0,1,4.69,177.78Z"/><path class="cls-8" d="M4.56,177.86a.9.9,0,0,1,.31.33.93.93,0,0,1,.13.44.32.32,0,0,1-.13.29.32.32,0,0,1-.31,0,.88.88,0,0,1-.32-.34.9.9,0,0,1-.13-.44.32.32,0,0,1,.13-.29A.32.32,0,0,1,4.56,177.86Z"/><path class="cls-41" d="M4.42,178a.25.25,0,0,1,.1.18.06.06,0,0,1-.1.06.22.22,0,0,1-.1-.18C4.32,178,4.36,178,4.42,178Z"/><path class="cls-41" d="M4.7,178.23a.23.23,0,0,1,.1.17c0,.07,0,.09-.1.06a.22.22,0,0,1-.11-.17C4.59,178.22,4.64,178.2,4.7,178.23Z"/><path class="cls-41" d="M4.42,178.36a.23.23,0,0,1,.1.17c0,.07,0,.09-.1.06a.21.21,0,0,1-.1-.17C4.32,178.35,4.36,178.33,4.42,178.36Z"/><path class="cls-41" d="M4.7,178.54a.25.25,0,0,1,.1.18.06.06,0,0,1-.1.06.23.23,0,0,1-.11-.18C4.59,178.54,4.64,178.51,4.7,178.54Z"/><polygon class="cls-42" points="2.26 167.85 11.57 162.43 23.8 169.49 14.48 174.91 2.26 167.85"/><polygon class="cls-43" points="14.48 174.91 23.8 169.49 26.6 174.88 17.28 180.3 14.48 174.91"/><path class="cls-26" d="M25.57,174.05l-1.63-3.13a.75.75,0,0,0-1-.3l-7.1,4.13a.75.75,0,0,0-.29,1l1.62,3.13a.75.75,0,0,0,1,.3L25.28,175A.76.76,0,0,0,25.57,174.05Z"/><polygon class="cls-43" points="21.09 182.5 30.41 177.09 31.37 182.53 22.05 187.95 21.09 182.5"/><polygon class="cls-42" points="17.28 180.3 26.6 174.88 30.41 177.09 21.09 182.5 17.28 180.3"/><path class="cls-44" d="M14.48,174.91l2.8,5.39,3.82,2.2.95,5.45-1.73-1a4.18,4.18,0,0,0-1.91-3.31c-1.06-.62-1.92-.12-1.92,1.09l-9.7-5.6a4.23,4.23,0,0,0-1.91-3.31c-1.06-.61-1.93-.12-1.93,1.1l-2.59-1.5v-4.88l1.89-2.69Z"/><polygon class="cls-33" points="2.95 175.76 2.95 176.92 2.59 177.12 2.59 175.97 2.95 175.76"/><path class="cls-4" d="M3,175.76l-.36.21c-2.3-1.09-2.52-1.49-2.58-2.1a1.14,1.14,0,0,1,.35-1v.9c0,.32.28.64.73.9Z"/><polygon class="cls-45" points="2.59 175.97 2.59 177.12 0.87 176.15 0.83 176.13 0.79 176.11 0.75 176.09 0.71 176.06 0.67 176.04 0.63 176.01 0.59 175.99 0.56 175.96 0.52 175.93 0.49 175.9 0.45 175.87 0.42 175.84 0.38 175.81 0.35 175.78 0.32 175.74 0.29 175.71 0.26 175.67 0.23 175.63 0.21 175.59 0.18 175.55 0.16 175.51 0.14 175.47 0.11 175.42 0.1 175.38 0.08 175.33 0.06 175.28 0.05 175.23 0.03 175.18 0.02 175.12 0.01 175.07 0.01 175.01 0 174.98 0 174.94 0 174.91 0 173.76 0 173.8 0 173.83 0.01 173.87 0.01 173.92 0.02 173.98 0.03 174.03 0.05 174.08 0.06 174.13 0.08 174.18 0.1 174.23 0.11 174.28 0.14 174.32 0.16 174.36 0.18 174.41 0.21 174.45 0.23 174.49 0.26 174.52 0.29 174.56 0.32 174.6 0.35 174.63 0.38 174.66 0.42 174.7 0.45 174.73 0.49 174.76 0.52 174.79 0.56 174.81 0.59 174.84 0.63 174.87 0.67 174.89 0.71 174.92 0.75 174.94 0.79 174.96 0.83 174.99 0.87 175.01 2.59 175.97"/><path class="cls-4" d="M16.62,178.4l-.23-.13h-.21l0,0-.5.29,0,0,0,0a.87.87,0,0,0-.17.21l0,.05,0,.06,0,0,0,.06,0,.05v1.75l0,0,0,0,0,0,0,0h0l.22.13,0,0,1-2.74Z"/><path class="cls-3" d="M16.36,178.42l-.49.29a1,1,0,0,0-.41.77v1.33c0,.3.18.44.41.31l.49-.29a1,1,0,0,0,.4-.77v-1.33C16.76,178.43,16.58,178.29,16.36,178.42Z"/><path class="cls-33" d="M11.79,177.25l-.75-.44a.31.31,0,0,1-.13-.25h0c0-.1.06-.15.13-.1l.75.43a.33.33,0,0,1,.13.25h0C11.92,177.24,11.86,177.29,11.79,177.25Z"/><path class="cls-33" d="M6.43,174.16l-.74-.44a.29.29,0,0,1-.14-.25h0c0-.1.06-.15.14-.1l.74.43a.33.33,0,0,1,.13.25h0C6.56,174.15,6.5,174.2,6.43,174.16Z"/><path class="cls-3" d="M23,183.22c.47-.27.85-.05.85.49a1.88,1.88,0,0,1-.85,1.48c-.48.27-.86.05-.86-.49A1.88,1.88,0,0,1,23,183.22Z"/><polygon class="cls-4" points="22.36 185.25 22.06 185.08 22.01 185.04 21.96 184.99 21.92 184.94 21.88 184.87 21.85 184.8 21.83 184.72 21.82 184.63 21.81 184.53 21.82 184.42 21.83 184.32 21.85 184.21 21.88 184.1 21.92 184 21.96 183.89 22.01 183.79 22.06 183.69 22.12 183.59 22.19 183.49 22.26 183.4 22.34 183.32 22.41 183.24 22.5 183.17 22.58 183.1 22.67 183.05 22.75 183 22.84 182.97 22.92 182.95 23 182.94 23.07 182.93 23.14 182.94 23.21 182.96 23.27 182.99 23.57 183.16 23.51 183.13 23.44 183.12 23.37 183.11 23.3 183.11 23.22 183.12 23.14 183.14 23.05 183.18 22.97 183.22 22.88 183.28 22.79 183.34 22.71 183.41 22.63 183.49 22.56 183.58 22.49 183.67 22.42 183.76 22.36 183.86 22.31 183.96 22.26 184.06 22.22 184.17 22.18 184.28 22.15 184.38 22.13 184.49 22.12 184.6 22.11 184.7 22.12 184.8 22.13 184.89 22.15 184.97 22.18 185.04 22.22 185.11 22.26 185.17 22.31 185.21 22.36 185.25"/><path class="cls-19" d="M23,183.48c.35-.2.63,0,.63.36a1.39,1.39,0,0,1-.63,1.1c-.35.2-.64,0-.64-.37A1.4,1.4,0,0,1,23,183.48Z"/><path class="cls-3" d="M30.21,179c.47-.27.85-.05.85.49a1.89,1.89,0,0,1-.85,1.48c-.47.27-.85,0-.85-.49A1.88,1.88,0,0,1,30.21,179Z"/><polygon class="cls-4" points="29.61 181.02 29.31 180.84 29.25 180.81 29.2 180.76 29.16 180.7 29.13 180.64 29.1 180.56 29.08 180.48 29.06 180.39 29.06 180.29 29.06 180.19 29.08 180.08 29.1 179.98 29.13 179.87 29.16 179.76 29.2 179.66 29.25 179.55 29.31 179.45 29.37 179.35 29.43 179.26 29.5 179.17 29.58 179.08 29.66 179.01 29.74 178.93 29.82 178.87 29.91 178.81 30 178.77 30.08 178.74 30.17 178.71 30.24 178.7 30.32 178.7 30.39 178.71 30.45 178.73 30.52 178.75 30.82 178.93 30.75 178.9 30.69 178.88 30.62 178.87 30.54 178.87 30.46 178.89 30.38 178.91 30.3 178.94 30.21 178.99 30.12 179.04 30.04 179.11 29.96 179.18 29.88 179.26 29.8 179.34 29.73 179.43 29.67 179.53 29.61 179.63 29.55 179.73 29.5 179.83 29.46 179.94 29.43 180.04 29.4 180.15 29.38 180.26 29.36 180.36 29.36 180.47 29.36 180.56 29.38 180.65 29.4 180.74 29.43 180.81 29.46 180.88 29.5 180.93 29.55 180.98 29.61 181.02"/><path class="cls-19" d="M30.21,179.24c.35-.2.63,0,.63.37a1.39,1.39,0,0,1-.63,1.09c-.35.2-.63,0-.63-.36A1.39,1.39,0,0,1,30.21,179.24Z"/><path class="cls-45" d="M31.08,181.52v.53h0l.46-.26.1-.07.07-.08.05-.08,0-.07v1.12l0,.08-.05.07-.07.08-.1.07-.46.26h0l-8.47,4.88h0l-.3.17,0,0-.06,0-.07,0-.06,0H22l-.07,0h-.47l-.05,0-.06,0-.05,0-.68-.39-.08-.06-.06-.07,0-.08v-1.12l0,.08.06.07.08.06.68.39.05,0,.06,0,.05,0h.47l.07,0h.07l.06,0,.07,0,.06,0,0,0,.3-.18h0l8.27-4.77Zm0,.53v1.12h0Z"/><path class="cls-4" d="M20.69,186.16l1.16.67,9.29-5.35-.06-.59.53.31c.26.15.23.41-.07.59l-.46.26h0l-8.47,4.87h0l-.3.18a1.13,1.13,0,0,1-1,0l-.68-.39C20.36,186.6,20.39,186.33,20.69,186.16Z"/><polygon class="cls-26" points="10.54 175.75 10.54 173.24 5.69 170.44 5.69 172.95 10.54 175.75"/><path class="cls-26" d="M5.33,170.23l-2.44-1.41a.61.61,0,0,0-.8.18l-.59.84a.55.55,0,0,0,.18.79l3.65,2.11Z"/><path class="cls-26" d="M15.51,178l-1.35-2.6a.59.59,0,0,0-.23-.24l-3-1.75V176l4.22,2.44A.27.27,0,0,0,15.51,178Z"/><polygon class="cls-4" points="16.49 183.61 6.52 177.87 6.06 178.14 16.02 183.88 16.49 183.61"/><polygon class="cls-45" points="16.02 183.88 6.06 178.14 6.06 179.26 16.02 185 16.02 183.88"/><polygon class="cls-33" points="16.49 183.61 16.49 184.73 16.02 185 16.02 183.88 16.49 183.61"/><polygon class="cls-25" points="28.31 179.56 24.33 181.83 24.06 182.5 24.57 184.61 24.82 184.68 28.82 182.33 29.06 181.77 28.66 179.76 28.31 179.56"/><polygon class="cls-11" points="28.91 181.57 28.79 181.51 28.72 181.18 28.85 181.23 28.91 181.57"/><polygon class="cls-11" points="28.8 180.99 28.68 180.93 28.61 180.59 28.74 180.65 28.8 180.99"/><polygon class="cls-11" points="28.69 180.4 28.57 180.34 28.5 180 28.63 180.06 28.69 180.4"/><path class="cls-11" d="M28.44,179.69l-.13-.05a.22.22,0,0,1,.13.12l.13.06A.33.33,0,0,0,28.44,179.69Z"/><path class="cls-11" d="M29,181.83h0l-.13-.06s0,0,0,.07h0a.25.25,0,0,1,0,.07h0a.19.19,0,0,1,0,.07h0a.16.16,0,0,1,0,.07h0l0,.06h0l-.05.05,0,0,0,0-.06,0-3.69,2.17-.07,0h0l-.06,0h-.07l-.07,0,.13.06h.23l0,0,3.69-2.17.06-.05h0s0,0,0,0h0l0,0h0v0l0,0h0v-.07h0V182h0v-.06h0v0a.08.08,0,0,1,0,0Z"/><polygon class="cls-11" points="24.5 184.17 24.38 184.11 28.79 181.51 28.91 181.57 24.5 184.17"/><polygon class="cls-11" points="28.68 180.93 24.27 183.52 24.39 183.58 28.8 180.99 28.68 180.93"/><polygon class="cls-11" points="28.57 180.34 24.16 182.94 24.28 183 28.69 180.4 28.57 180.34"/><polygon class="cls-11" points="28.44 179.76 24.06 182.35 24.19 182.4 28.57 179.82 28.44 179.76"/><path class="cls-11" d="M28.25,179.43l.1,0h.11a.17.17,0,0,1,.1,0l-.13-.06h0l0,0h-.33l-.08.05-3.68,2.17a.41.41,0,0,0-.11.07l0,0-.05.05,0,0,0,0,0,0,0,.06v0h0v0l0,.05,0,.05h0v0a.08.08,0,0,0,0,.05l0,0h0a.43.43,0,0,0,0,.05.09.09,0,0,0,0,.05v0h0v0a.15.15,0,0,0,0,.07v.07s0,.08,0,.11l.34,1.8a.49.49,0,0,0,.25.36l.13,0a.46.46,0,0,1-.25-.35l-.34-1.8a.53.53,0,0,1,0-.13v0a.49.49,0,0,1,0-.12h0l0-.14h0c0-.05,0-.09,0-.13h0l.07-.12h0a.36.36,0,0,1,.07-.1l0,0,.07-.07,0,0,.1-.08,3.69-2.17.11,0Z"/><path class="cls-13" d="M28.81,179.8a.44.44,0,0,0-.69-.32l-3.69,2.17a1,1,0,0,0-.45,1l.34,1.8a.44.44,0,0,0,.7.31l3.68-2.17a1,1,0,0,0,.45-1Zm-4.33,2.09,3.68-2.17a.28.28,0,0,1,.41.1l-4.38,2.58A.64.64,0,0,1,24.48,181.89Zm-.26.77,4.41-2.6.06.34L24.28,183Zm.11.58,4.41-2.59.06.34-4.41,2.59Zm4.33-.9L25,184.51a.28.28,0,0,1-.41-.1L29,181.83A.67.67,0,0,1,28.66,182.34Zm-4.16,1.83-.06-.34,4.41-2.6.06.34Z"/><path class="cls-25" d="M12.13,164.21a1.24,1.24,0,0,0-.2-.1h0l0,0-.13,0-.07,0H11.6l-.14,0h-.77l-.06,0-.14,0-.08,0-.05,0-.06,0a1.24,1.24,0,0,0-.2.1l-3.48,2h0l0,0-.05,0,0,0-.05,0h0l0,0-.06.07h0l0,.05v0h0a.08.08,0,0,1,0,0v0h0s0,0,0,0a0,0,0,0,0,0,0h0a.06.06,0,0,0,0,0v0h0v.56a.08.08,0,0,0,0,0l0,0s0,0,0,0,0,0,0,0l0,0,0,0,0,0,.06-.07,0,0,.05,0,0,0,.05,0,0,0,3.48-2,.2-.1,0,0,.14,0,.14,0a.57.57,0,0,1,.18,0h.6l.23,0h0l.2.06,0,0,.22.1.57.33v-.64Z"/><polygon class="cls-25" points="17.42 167.26 17.42 167.9 13.39 165.58 13.4 164.94 17.42 167.26"/><polygon class="cls-26" points="13.4 164.94 13.39 165.58 7.89 168.78 7.89 168.14 13.4 164.94"/><path class="cls-25" d="M19.1,168.23l-1-.57v.64l1,.57a.71.71,0,0,1,.42.6v-.64A.73.73,0,0,0,19.1,168.23Z"/><polygon class="cls-26" points="18.11 167.66 18.11 168.3 12.61 171.5 12.61 170.86 18.11 167.66"/><path class="cls-25" d="M20.31,168.89a.2.2,0,0,0,0,.07s0,0,0,.06a.25.25,0,0,1,0,.07s0,0,0,0l0,.07,0,0-.05.08-.06.07,0,0-.09.09-.07.06-.06,0-.08.05-.08,0-3.48,2-.21.11-.06,0-.18.07-.06,0-.11,0-.09,0-.12,0h-.09l-.25,0h-.88l-.1,0-.12,0-.09,0-.14,0-.07,0-.24-.08-.11,0-.06,0-.16-.09-7-4a1.48,1.48,0,0,1-.4-.32.88.88,0,0,1-.26-.6v.64a1.13,1.13,0,0,0,.65.92l7,4,.16.09.06,0,.09.05h0l.23.08h.08l.14,0h.09l.12,0h1l.25,0h.08l.13,0,.08,0,.12,0h0l0,0,.18-.06.06,0,.21-.11,3.47-2h0l.06,0,.08,0,.06-.05.07-.06h0l.08-.08,0,0,0-.05v0l.06-.08s0,0,0,0v0l0-.07s0,0,0,0h0a.19.19,0,0,0,0-.07.06.06,0,0,0,0,0v-.09a.06.06,0,0,0,0,0v-.6Z"/><path class="cls-11" d="M19.66,167.91a1,1,0,0,1,0,1.82l-3.48,2a3.47,3.47,0,0,1-3.14,0l-7-4a1,1,0,0,1,0-1.82l3.47-2a3.49,3.49,0,0,1,3.15,0Zm-7.74,2.55,5.5-3.2-4-2.32-5.51,3.2,4,2.32m3.71,1,3.48-2c.56-.32.56-.85,0-1.18l-1-.57-5.5,3.2,1,.57a2.2,2.2,0,0,0,2,0M7.2,167.74l5.5-3.2-.57-.33a2.21,2.21,0,0,0-2,0l-3.48,2a.63.63,0,0,0,0,1.18l.57.33"/></g></g></g></svg>