<svg xmlns="http://www.w3.org/2000/svg" xmlns:xlink="http://www.w3.org/1999/xlink" viewBox="0 0 851.13 575.26"><defs><style>.cls-1{fill:none;}.cls-2{fill:#c1a77e;}.cls-15,.cls-3{fill:#987b53;}.cls-4{fill:#71502a;}.cls-5{fill:#af8850;}.cls-6{fill:#98cfef;opacity:0.5;}.cls-7{fill:#65a3c5;opacity:0.9;}.cls-8{fill:#e0ba87;}.cls-9{fill:#fff;}.cls-10{fill:#8a6439;}.cls-11{fill:#715236;}.cls-12{fill:url(#linear-gradient);}.cls-13{fill:#997545;}.cls-14{fill:url(#linear-gradient-2);}.cls-15{opacity:0.6;}.cls-16{fill:url(#linear-gradient-3);}.cls-17{fill:url(#linear-gradient-4);}.cls-18{fill:url(#linear-gradient-5);}.cls-19{fill:url(#linear-gradient-6);}.cls-20{fill:#3559cd;}.cls-21{fill:url(#linear-gradient-7);}.cls-22{fill:url(#linear-gradient-8);}.cls-23{fill:url(#linear-gradient-9);}.cls-24{fill:#5e636c;}.cls-25{clip-path:url(#clip-path);}.cls-26{fill:#a37d4b;}.cls-27{fill:#7f5b35;}.cls-28{fill:#be9e73;}.cls-29{fill:#85807c;}.cls-30{fill:#97734d;}.cls-31{fill:#caa67e;}.cls-32{fill:url(#radial-gradient);}.cls-33{fill:url(#linear-gradient-10);}.cls-34{fill:url(#linear-gradient-11);}.cls-35{fill:url(#linear-gradient-12);}.cls-36{fill:url(#linear-gradient-13);}.cls-37{fill:url(#radial-gradient-2);}.cls-38{fill:url(#linear-gradient-14);}.cls-39{fill:url(#linear-gradient-15);}.cls-40{fill:url(#linear-gradient-16);}.cls-41{fill:url(#linear-gradient-17);}.cls-42{fill:url(#radial-gradient-3);}.cls-43{fill:url(#linear-gradient-18);}.cls-44{fill:url(#linear-gradient-19);}.cls-45{fill:url(#linear-gradient-20);}.cls-46{fill:url(#linear-gradient-21);}.cls-47{fill:url(#radial-gradient-4);}.cls-48{fill:url(#linear-gradient-22);}.cls-49{fill:url(#linear-gradient-23);}.cls-50{fill:url(#linear-gradient-24);}.cls-51{fill:url(#linear-gradient-25);}.cls-52{fill:url(#radial-gradient-5);}.cls-53{fill:url(#linear-gradient-26);}.cls-54{fill:url(#linear-gradient-27);}.cls-55{fill:url(#linear-gradient-28);}.cls-56{fill:url(#linear-gradient-29);}.cls-57{fill:url(#radial-gradient-6);}.cls-58{fill:url(#linear-gradient-30);}.cls-59{fill:url(#linear-gradient-31);}.cls-60{fill:url(#linear-gradient-32);}.cls-61{fill:url(#linear-gradient-33);}.cls-62{fill:url(#linear-gradient-34);}.cls-63{fill:url(#linear-gradient-35);}.cls-64{fill:url(#linear-gradient-36);}.cls-65{fill:#b08c5f;}.cls-66{fill:url(#linear-gradient-37);}.cls-67{fill:url(#linear-gradient-38);}.cls-68{fill:url(#linear-gradient-39);}.cls-69{fill:url(#linear-gradient-40);}.cls-70{fill:url(#linear-gradient-41);}.cls-71{fill:url(#linear-gradient-42);}.cls-72{fill:url(#linear-gradient-43);}.cls-73{fill:url(#linear-gradient-44);}.cls-74{fill:url(#linear-gradient-45);}.cls-75{fill:url(#linear-gradient-46);}.cls-76{fill:url(#linear-gradient-47);}.cls-77{fill:url(#linear-gradient-48);}.cls-78{fill:url(#linear-gradient-49);}.cls-79{fill:url(#linear-gradient-50);}.cls-80{fill:#bd3d2f;}.cls-81{fill:#701f13;}.cls-82{fill:#711f14;}.cls-83{fill:#5a1805;}.cls-84{fill:url(#linear-gradient-51);}.cls-85{fill:#5e1c14;}.cls-86{fill:url(#linear-gradient-52);}.cls-87{fill:url(#linear-gradient-53);}.cls-88{fill:url(#linear-gradient-54);}.cls-89{fill:url(#linear-gradient-55);}.cls-90{fill:url(#linear-gradient-56);}.cls-91{fill:url(#linear-gradient-57);}.cls-92{fill:url(#linear-gradient-58);}.cls-93{fill:url(#linear-gradient-59);}.cls-94{fill:url(#linear-gradient-60);}.cls-95{fill:url(#linear-gradient-61);}.cls-96{fill:url(#linear-gradient-62);}.cls-97{fill:url(#linear-gradient-63);}.cls-98{fill:url(#linear-gradient-64);}.cls-99{fill:url(#linear-gradient-65);}.cls-100{fill:url(#linear-gradient-66);}.cls-101{fill:url(#linear-gradient-67);}.cls-102{fill:url(#linear-gradient-68);}.cls-103{fill:url(#linear-gradient-69);}.cls-104{fill:url(#linear-gradient-70);}.cls-105{fill:url(#linear-gradient-71);}.cls-106{fill:url(#linear-gradient-72);}.cls-107{fill:url(#linear-gradient-73);}.cls-108{fill:url(#linear-gradient-74);}.cls-109{fill:url(#linear-gradient-75);}.cls-110{fill:url(#radial-gradient-7);}.cls-111{fill:url(#linear-gradient-76);}.cls-112{fill:url(#linear-gradient-77);}.cls-113{fill:url(#linear-gradient-78);}.cls-114{fill:url(#linear-gradient-79);}.cls-115{fill:url(#radial-gradient-8);}.cls-116{fill:url(#linear-gradient-80);}.cls-117{fill:url(#linear-gradient-81);}.cls-118{fill:url(#linear-gradient-82);}.cls-119{fill:url(#linear-gradient-83);}.cls-120{fill:url(#radial-gradient-9);}.cls-121{fill:url(#linear-gradient-84);}.cls-122{fill:url(#linear-gradient-85);}.cls-123{fill:url(#linear-gradient-86);}.cls-124{fill:url(#linear-gradient-87);}.cls-125{fill:url(#radial-gradient-10);}.cls-126{fill:url(#linear-gradient-88);}.cls-127{fill:url(#linear-gradient-89);}.cls-128{fill:url(#linear-gradient-90);}.cls-129{fill:url(#linear-gradient-91);}.cls-130{fill:url(#radial-gradient-11);}.cls-131{fill:url(#linear-gradient-92);}.cls-132{fill:url(#linear-gradient-93);}.cls-133{fill:url(#linear-gradient-94);}.cls-134{fill:url(#linear-gradient-95);}.cls-135{fill:url(#radial-gradient-12);}.cls-136{fill:url(#linear-gradient-96);}.cls-137{fill:url(#linear-gradient-97);}.cls-138{fill:url(#linear-gradient-98);}.cls-139{fill:url(#linear-gradient-99);}.cls-140{fill:url(#radial-gradient-13);}</style><linearGradient id="linear-gradient" x1="31.39" y1="203.25" x2="32.81" y2="208.55" gradientUnits="userSpaceOnUse"><stop offset="0" stop-color="#b28151"/><stop offset="1" stop-color="#554025"/></linearGradient><linearGradient id="linear-gradient-2" x1="30.72" y1="205.24" x2="36.26" y2="208.72" gradientUnits="userSpaceOnUse"><stop offset="0" stop-color="#e3e3e3"/><stop offset="1" stop-color="#6d6d6d"/></linearGradient><linearGradient id="linear-gradient-3" x1="514.57" y1="550.85" x2="516.58" y2="558.33" xlink:href="#linear-gradient"/><linearGradient id="linear-gradient-4" x1="103.21" y1="322.75" x2="105.71" y2="322.75" xlink:href="#linear-gradient-2"/><linearGradient id="linear-gradient-5" x1="104.19" y1="304.67" x2="105.33" y2="304.67" xlink:href="#linear-gradient-2"/><linearGradient id="linear-gradient-6" x1="110.19" y1="283.49" x2="110.29" y2="287.25" gradientUnits="userSpaceOnUse"><stop offset="0" stop-color="#b0c6fc"/><stop offset="1" stop-color="#5c81fa"/></linearGradient><linearGradient id="linear-gradient-7" x1="838.84" y1="356.61" x2="841.46" y2="356.61" xlink:href="#linear-gradient-2"/><linearGradient id="linear-gradient-8" x1="839.87" y1="337.66" x2="841.06" y2="337.66" xlink:href="#linear-gradient-2"/><linearGradient id="linear-gradient-9" x1="841.8" y1="335.53" x2="840.23" y2="347.35" gradientTransform="matrix(1.01, -0.05, 0, 1, -6.09, 23.92)" xlink:href="#linear-gradient-6"/><clipPath id="clip-path"><path class="cls-1" d="M850.92,322.32c-.66,3.21-2.78,5.81-5,5.87-2.42.08-4.05-3-3.34-6.93s3.48-6.73,5.86-6C850.6,315.88,851.6,319.05,850.92,322.32Z"/></clipPath><radialGradient id="radial-gradient" cx="444.06" cy="447.66" r="6.57" gradientUnits="userSpaceOnUse"><stop offset="0.01" stop-color="#f8e6a7"/><stop offset="1" stop-color="#bd913e"/></radialGradient><linearGradient id="linear-gradient-10" x1="433.81" y1="500.5" x2="437.41" y2="500.5" xlink:href="#linear-gradient-2"/><linearGradient id="linear-gradient-11" x1="443.69" y1="445.82" x2="448.93" y2="448.19" xlink:href="#linear-gradient-2"/><linearGradient id="linear-gradient-12" x1="442.38" y1="434.16" x2="440.34" y2="461.24" xlink:href="#linear-gradient-2"/><linearGradient id="linear-gradient-13" x1="435.16" y1="474.14" x2="436.96" y2="474.14" xlink:href="#linear-gradient-2"/><radialGradient id="radial-gradient-2" cx="487.06" cy="305.66" r="6.57" xlink:href="#radial-gradient"/><linearGradient id="linear-gradient-14" x1="476.81" y1="358.5" x2="480.41" y2="358.5" xlink:href="#linear-gradient-2"/><linearGradient id="linear-gradient-15" x1="486.69" y1="303.82" x2="491.93" y2="306.19" xlink:href="#linear-gradient-2"/><linearGradient id="linear-gradient-16" x1="485.38" y1="292.16" x2="483.34" y2="319.24" xlink:href="#linear-gradient-2"/><linearGradient id="linear-gradient-17" x1="478.16" y1="332.14" x2="479.96" y2="332.14" xlink:href="#linear-gradient-2"/><radialGradient id="radial-gradient-3" cx="567.06" cy="258.66" r="6.57" xlink:href="#radial-gradient"/><linearGradient id="linear-gradient-18" x1="556.81" y1="311.5" x2="560.41" y2="311.5" xlink:href="#linear-gradient-2"/><linearGradient id="linear-gradient-19" x1="566.69" y1="256.82" x2="571.93" y2="259.19" xlink:href="#linear-gradient-2"/><linearGradient id="linear-gradient-20" x1="565.38" y1="245.16" x2="563.34" y2="272.24" xlink:href="#linear-gradient-2"/><linearGradient id="linear-gradient-21" x1="558.16" y1="285.14" x2="559.96" y2="285.14" xlink:href="#linear-gradient-2"/><radialGradient id="radial-gradient-4" cx="643.06" cy="215.66" r="6.57" xlink:href="#radial-gradient"/><linearGradient id="linear-gradient-22" x1="632.81" y1="268.5" x2="636.41" y2="268.5" xlink:href="#linear-gradient-2"/><linearGradient id="linear-gradient-23" x1="642.69" y1="213.82" x2="647.93" y2="216.19" xlink:href="#linear-gradient-2"/><linearGradient id="linear-gradient-24" x1="641.38" y1="202.16" x2="639.34" y2="229.24" xlink:href="#linear-gradient-2"/><linearGradient id="linear-gradient-25" x1="634.16" y1="242.14" x2="635.96" y2="242.14" xlink:href="#linear-gradient-2"/><radialGradient id="radial-gradient-5" cx="791.06" cy="129.66" r="6.57" xlink:href="#radial-gradient"/><linearGradient id="linear-gradient-26" x1="780.81" y1="182.5" x2="784.41" y2="182.5" xlink:href="#linear-gradient-2"/><linearGradient id="linear-gradient-27" x1="790.69" y1="127.82" x2="795.93" y2="130.19" xlink:href="#linear-gradient-2"/><linearGradient id="linear-gradient-28" x1="789.38" y1="116.16" x2="787.34" y2="143.24" xlink:href="#linear-gradient-2"/><linearGradient id="linear-gradient-29" x1="782.16" y1="156.14" x2="783.96" y2="156.14" xlink:href="#linear-gradient-2"/><radialGradient id="radial-gradient-6" cx="259.06" cy="437.66" r="6.57" xlink:href="#radial-gradient"/><linearGradient id="linear-gradient-30" x1="248.81" y1="490.5" x2="252.41" y2="490.5" xlink:href="#linear-gradient-2"/><linearGradient id="linear-gradient-31" x1="258.69" y1="435.82" x2="263.93" y2="438.19" xlink:href="#linear-gradient-2"/><linearGradient id="linear-gradient-32" x1="257.38" y1="424.16" x2="255.34" y2="451.24" xlink:href="#linear-gradient-2"/><linearGradient id="linear-gradient-33" x1="250.16" y1="464.14" x2="251.96" y2="464.14" xlink:href="#linear-gradient-2"/><linearGradient id="linear-gradient-34" x1="85.01" y1="228.52" x2="75.37" y2="240.38" xlink:href="#linear-gradient"/><linearGradient id="linear-gradient-35" x1="63.6" y1="219.16" x2="83.3" y2="260.32" xlink:href="#linear-gradient"/><linearGradient id="linear-gradient-36" x1="84.66" y1="220.29" x2="71.56" y2="233.19" xlink:href="#linear-gradient"/><linearGradient id="linear-gradient-37" x1="71" y1="225.93" x2="76.71" y2="232.92" gradientUnits="userSpaceOnUse"><stop offset="0" stop-color="#b28151"/><stop offset="0.54" stop-color="#554025"/></linearGradient><linearGradient id="linear-gradient-38" x1="84.66" y1="213.56" x2="71.56" y2="226.46" xlink:href="#linear-gradient"/><linearGradient id="linear-gradient-39" x1="71" y1="219.19" x2="76.71" y2="226.19" xlink:href="#linear-gradient-37"/><linearGradient id="linear-gradient-40" x1="69.26" y1="222.74" x2="81.86" y2="238.17" xlink:href="#linear-gradient"/><linearGradient id="linear-gradient-41" x1="73.55" y1="220.8" x2="82.67" y2="231.97" xlink:href="#linear-gradient"/><linearGradient id="linear-gradient-42" x1="74.65" y1="223.84" x2="79.52" y2="229.8" xlink:href="#linear-gradient"/><linearGradient id="linear-gradient-43" x1="429.63" y1="32.94" x2="434.23" y2="43.11" xlink:href="#linear-gradient"/><linearGradient id="linear-gradient-44" x1="429.3" y1="35.23" x2="442.49" y2="43.52" xlink:href="#linear-gradient-2"/><linearGradient id="linear-gradient-45" x1="593.35" y1="153.28" x2="604.46" y2="153.28" gradientUnits="userSpaceOnUse"><stop offset="0" stop-color="#bf462f"/><stop offset="1" stop-color="#3d1504"/></linearGradient><linearGradient id="linear-gradient-46" x1="594.87" y1="146.38" x2="605.57" y2="146.38" gradientUnits="userSpaceOnUse"><stop offset="0" stop-color="#c84232"/><stop offset="1" stop-color="#5a1605"/></linearGradient><linearGradient id="linear-gradient-47" x1="594.4" y1="137.74" x2="602.71" y2="137.74" xlink:href="#linear-gradient-45"/><linearGradient id="linear-gradient-48" x1="594.52" y1="136.82" x2="610.32" y2="136.82" gradientUnits="userSpaceOnUse"><stop offset="0" stop-color="#efe5d8"/><stop offset="1" stop-color="#3d1504"/></linearGradient><linearGradient id="linear-gradient-49" x1="596.7" y1="134.28" x2="600.89" y2="138.05" xlink:href="#linear-gradient-46"/><linearGradient id="linear-gradient-50" x1="597.4" y1="132.79" x2="599.78" y2="134.92" xlink:href="#linear-gradient-46"/><linearGradient id="linear-gradient-51" x1="-67.26" y1="-204.93" x2="-59.04" y2="-204.93" gradientTransform="translate(387.03 132.01) rotate(110.73)" xlink:href="#linear-gradient-45"/><linearGradient id="linear-gradient-52" x1="-65.11" y1="-207.74" x2="-60.38" y2="-203.49" gradientTransform="translate(387.03 132.01) rotate(110.73)" xlink:href="#linear-gradient-48"/><linearGradient id="linear-gradient-53" x1="-64.33" y1="-208.63" x2="-62.56" y2="-207.03" gradientTransform="translate(387.03 132.01) rotate(110.73)" xlink:href="#linear-gradient-46"/><linearGradient id="linear-gradient-54" x1="581.35" y1="530.28" x2="592.46" y2="530.28" xlink:href="#linear-gradient-45"/><linearGradient id="linear-gradient-55" x1="582.87" y1="523.38" x2="593.57" y2="523.38" xlink:href="#linear-gradient-46"/><linearGradient id="linear-gradient-56" x1="582.4" y1="514.74" x2="590.71" y2="514.74" xlink:href="#linear-gradient-45"/><linearGradient id="linear-gradient-57" x1="582.52" y1="513.82" x2="598.32" y2="513.82" xlink:href="#linear-gradient-48"/><linearGradient id="linear-gradient-58" x1="584.7" y1="511.28" x2="588.89" y2="515.05" xlink:href="#linear-gradient-46"/><linearGradient id="linear-gradient-59" x1="585.4" y1="509.79" x2="587.78" y2="511.92" xlink:href="#linear-gradient-46"/><linearGradient id="linear-gradient-60" x1="289.59" y1="-327.13" x2="297.81" y2="-327.13" gradientTransform="translate(387.03 132.01) rotate(110.73)" xlink:href="#linear-gradient-45"/><linearGradient id="linear-gradient-61" x1="291.73" y1="-329.93" x2="296.46" y2="-325.68" gradientTransform="translate(387.03 132.01) rotate(110.73)" xlink:href="#linear-gradient-48"/><linearGradient id="linear-gradient-62" x1="292.51" y1="-330.82" x2="294.28" y2="-329.23" gradientTransform="translate(387.03 132.01) rotate(110.73)" xlink:href="#linear-gradient-46"/><linearGradient id="linear-gradient-63" x1="95.35" y1="250.28" x2="106.46" y2="250.28" xlink:href="#linear-gradient-45"/><linearGradient id="linear-gradient-64" x1="96.87" y1="243.38" x2="107.57" y2="243.38" xlink:href="#linear-gradient-46"/><linearGradient id="linear-gradient-65" x1="96.4" y1="234.74" x2="104.71" y2="234.74" xlink:href="#linear-gradient-45"/><linearGradient id="linear-gradient-66" x1="96.52" y1="233.82" x2="112.32" y2="233.82" xlink:href="#linear-gradient-48"/><linearGradient id="linear-gradient-67" x1="98.7" y1="231.28" x2="102.89" y2="235.05" xlink:href="#linear-gradient-46"/><linearGradient id="linear-gradient-68" x1="99.4" y1="229.79" x2="101.77" y2="231.92" xlink:href="#linear-gradient-46"/><linearGradient id="linear-gradient-69" x1="199.7" y1="226.5" x2="207.92" y2="226.5" gradientTransform="translate(387.03 132.01) rotate(110.73)" xlink:href="#linear-gradient-45"/><linearGradient id="linear-gradient-70" x1="201.85" y1="223.7" x2="206.57" y2="227.95" gradientTransform="translate(387.03 132.01) rotate(110.73)" xlink:href="#linear-gradient-48"/><linearGradient id="linear-gradient-71" x1="202.62" y1="222.81" x2="204.39" y2="224.4" gradientTransform="translate(387.03 132.01) rotate(110.73)" xlink:href="#linear-gradient-46"/><linearGradient id="linear-gradient-72" x1="623.63" y1="181.35" x2="627.08" y2="181.35" xlink:href="#linear-gradient-2"/><linearGradient id="linear-gradient-73" x1="624.92" y1="158.44" x2="626.65" y2="158.44" xlink:href="#linear-gradient-2"/><linearGradient id="linear-gradient-74" x1="623.94" y1="143" x2="628.03" y2="143" xlink:href="#linear-gradient-2"/><linearGradient id="linear-gradient-75" x1="623.2" y1="141.56" x2="629.84" y2="141.56" xlink:href="#linear-gradient-2"/><radialGradient id="radial-gradient-7" cx="623.68" cy="134.08" r="10.44" xlink:href="#radial-gradient"/><linearGradient id="linear-gradient-76" x1="516.63" y1="120.35" x2="520.08" y2="120.35" xlink:href="#linear-gradient-2"/><linearGradient id="linear-gradient-77" x1="517.92" y1="97.44" x2="519.65" y2="97.44" xlink:href="#linear-gradient-2"/><linearGradient id="linear-gradient-78" x1="516.94" y1="82" x2="521.03" y2="82" xlink:href="#linear-gradient-2"/><linearGradient id="linear-gradient-79" x1="516.2" y1="80.56" x2="522.84" y2="80.56" xlink:href="#linear-gradient-2"/><radialGradient id="radial-gradient-8" cx="516.68" cy="73.08" r="10.44" xlink:href="#radial-gradient"/><linearGradient id="linear-gradient-80" x1="395.63" y1="49.35" x2="399.08" y2="49.35" xlink:href="#linear-gradient-2"/><linearGradient id="linear-gradient-81" x1="396.92" y1="26.44" x2="398.65" y2="26.44" xlink:href="#linear-gradient-2"/><linearGradient id="linear-gradient-82" x1="395.94" y1="11" x2="400.03" y2="11" xlink:href="#linear-gradient-2"/><linearGradient id="linear-gradient-83" x1="395.2" y1="9.56" x2="401.84" y2="9.56" xlink:href="#linear-gradient-2"/><radialGradient id="radial-gradient-9" cx="395.68" cy="2.08" r="10.44" xlink:href="#radial-gradient"/><linearGradient id="linear-gradient-84" x1="805.63" y1="286.35" x2="809.08" y2="286.35" xlink:href="#linear-gradient-2"/><linearGradient id="linear-gradient-85" x1="806.92" y1="263.44" x2="808.65" y2="263.44" xlink:href="#linear-gradient-2"/><linearGradient id="linear-gradient-86" x1="805.94" y1="248" x2="810.03" y2="248" xlink:href="#linear-gradient-2"/><linearGradient id="linear-gradient-87" x1="805.2" y1="246.56" x2="811.84" y2="246.56" xlink:href="#linear-gradient-2"/><radialGradient id="radial-gradient-10" cx="805.68" cy="239.08" r="10.44" xlink:href="#radial-gradient"/><linearGradient id="linear-gradient-88" x1="229.63" y1="342.35" x2="233.08" y2="342.35" xlink:href="#linear-gradient-2"/><linearGradient id="linear-gradient-89" x1="230.92" y1="319.44" x2="232.65" y2="319.44" xlink:href="#linear-gradient-2"/><linearGradient id="linear-gradient-90" x1="229.94" y1="304" x2="234.03" y2="304" xlink:href="#linear-gradient-2"/><linearGradient id="linear-gradient-91" x1="229.2" y1="302.56" x2="235.84" y2="302.56" xlink:href="#linear-gradient-2"/><radialGradient id="radial-gradient-11" cx="229.68" cy="295.08" r="10.44" xlink:href="#radial-gradient"/><linearGradient id="linear-gradient-92" x1="126.63" y1="283.35" x2="130.08" y2="283.35" xlink:href="#linear-gradient-2"/><linearGradient id="linear-gradient-93" x1="127.92" y1="260.44" x2="129.65" y2="260.44" xlink:href="#linear-gradient-2"/><linearGradient id="linear-gradient-94" x1="126.94" y1="245" x2="131.03" y2="245" xlink:href="#linear-gradient-2"/><linearGradient id="linear-gradient-95" x1="126.2" y1="243.56" x2="132.84" y2="243.56" xlink:href="#linear-gradient-2"/><radialGradient id="radial-gradient-12" cx="126.68" cy="236.08" r="10.44" xlink:href="#radial-gradient"/><linearGradient id="linear-gradient-96" x1="2.63" y1="211.35" x2="6.08" y2="211.35" xlink:href="#linear-gradient-2"/><linearGradient id="linear-gradient-97" x1="3.92" y1="188.44" x2="5.65" y2="188.44" xlink:href="#linear-gradient-2"/><linearGradient id="linear-gradient-98" x1="2.94" y1="173" x2="7.03" y2="173" xlink:href="#linear-gradient-2"/><linearGradient id="linear-gradient-99" x1="2.2" y1="171.56" x2="8.84" y2="171.56" xlink:href="#linear-gradient-2"/><radialGradient id="radial-gradient-13" cx="2.68" cy="164.08" r="10.44" xlink:href="#radial-gradient"/></defs><title>Asset 20</title><g id="Layer_2" data-name="Layer 2"><g id="FURNITURE"><g id="_38" data-name="38"><polygon class="cls-2" points="66.65 239.18 90.25 225.35 47.49 200.96 24 214.53 66.65 239.18"/><path class="cls-3" d="M54.59,225.09l9-5.15a5.18,5.18,0,0,1,5.18,0l8.85,5.13a1.52,1.52,0,0,1,0,2.63l-8.94,5.12a5.17,5.17,0,0,1-5.16,0l-8.93-5.11A1.52,1.52,0,0,1,54.59,225.09Z"/><polygon class="cls-4" points="90.33 226.06 90.25 225.35 66.65 239.1 66.65 239.89 90.33 226.06"/><polygon class="cls-5" points="24 214.53 23.91 215.12 66.65 239.89 66.65 239.05 24 214.53"/><polygon class="cls-6" points="36.88 187.74 36.88 208.01 46.7 202.23 46.7 182.04 36.88 187.74"/><polygon class="cls-7" points="36.88 187.74 36.88 208.01 36.24 207.45 36.24 188.37 36.88 187.74"/><polygon class="cls-6" points="26.43 193.76 26.43 214.03 36.24 208.24 36.24 188.06 26.43 193.76"/><polygon class="cls-7" points="26.43 193.76 26.43 214.03 25.59 213.48 25.79 194.39 26.43 193.76"/><polygon class="cls-4" points="48.55 201.58 48.61 170.66 47.65 171.24 47.65 202.12 48.55 201.58"/><polygon class="cls-5" points="46.7 201.58 46.7 170.66 47.65 171.24 47.65 202.12 46.7 201.58"/><polygon class="cls-4" points="25.74 214.57 25.8 189.34 24.84 189.93 24.84 215.11 25.74 214.57"/><polygon class="cls-5" points="23.89 214.57 23.89 189.34 24.84 189.93 24.84 215.11 23.89 214.57"/><polygon class="cls-4" points="47.65 172.66 27.98 184.28 26.62 183.49 47.65 171.24 47.65 172.66"/><polygon class="cls-5" points="87.48 194.2 47.65 171.24 47.65 172.54 86.24 194.89 87.48 194.2"/><polygon class="cls-8" points="23.89 189.34 46.7 176.31 47.65 176.89 24.84 189.93 23.89 189.34"/><polygon class="cls-4" points="24.84 189.93 47.65 176.89 47.65 181.65 24.84 194.89 24.84 189.93"/><polygon class="cls-5" points="47.65 176.93 88.19 200.33 88.19 205.01 47.65 181.65 47.65 176.93"/><polygon class="cls-8" points="47.65 176.97 48.61 176.49 88.19 199.11 88.19 200.41 47.65 176.97"/><path class="cls-9" d="M52.51,181.05V183a.79.79,0,0,0,.38.67l1.51.9a.28.28,0,0,0,.42-.24v-2a.76.76,0,0,0-.39-.67l-1.5-.88A.28.28,0,0,0,52.51,181.05Z"/><path class="cls-9" d="M55.45,182.63v2a.76.76,0,0,0,.38.67l1.51.9a.27.27,0,0,0,.41-.24v-2a.8.8,0,0,0-.38-.68l-1.51-.87A.27.27,0,0,0,55.45,182.63Z"/><polygon class="cls-7" points="58.34 208.11 59.05 207.59 59.21 188.31 58.42 187.86 58.34 208.11"/><polygon class="cls-6" points="59.05 188.26 59.05 208.33 68.24 213.76 68.24 193.56 59.05 188.26"/><polygon class="cls-7" points="68.16 213.81 68.87 213.29 69.03 194.01 68.24 193.56 68.16 213.81"/><polygon class="cls-6" points="68.87 193.97 68.87 214.03 78.06 219.46 78.06 199.26 68.87 193.97"/><polygon class="cls-7" points="77.98 219.51 78.69 218.99 78.85 199.72 78.06 199.26 77.98 219.51"/><polygon class="cls-6" points="78.69 199.35 78.69 219.41 87.87 224.84 87.87 204.64 78.69 199.35"/><polygon class="cls-7" points="87.8 224.9 88.51 224.38 88.67 205.1 87.87 204.64 87.8 224.9"/><polygon class="cls-5" points="88.19 225.34 88.19 194.41 89.14 194.99 89.14 225.88 88.19 225.34"/><polygon class="cls-6" points="27.47 183.99 47.65 172.19 57.13 177.47 36.7 189.36 27.47 183.99 27.47 183.99"/><polygon class="cls-7" points="57.13 177.47 57.29 178.12 37.3 189.7 36.7 189.36 57.13 177.47"/><polygon class="cls-6" points="37.29 189.69 57.63 177.76 66.95 183.17 46.52 195.06 37.29 189.69 37.29 189.69"/><polygon class="cls-7" points="66.95 183.17 67.11 183.82 47.12 195.41 46.52 195.06 66.95 183.17"/><polygon class="cls-6" points="49.23 182.56 49.23 202.63 58.42 208.06 58.42 187.86 49.23 182.56"/><polygon class="cls-10" points="81.54 221.76 87.4 218.06 50.03 196.21 44.27 199.64 81.54 221.76"/><polygon class="cls-4" points="87.48 218.78 87.4 218.06 81.54 221.68 81.54 222.47 87.48 218.78"/><polygon class="cls-11" points="44.27 199.64 44.18 200.23 81.54 222.47 81.54 221.63 44.27 199.64"/><polygon class="cls-7" points="76.79 188.76 76.79 189.52 56.87 201.11 56.24 200.76 76.79 188.76"/><polygon class="cls-6" points="47.11 195.39 67.56 183.49 76.93 188.76 56.34 200.76 47.11 195.39 47.11 195.39"/><polygon class="cls-6" points="56.93 201.09 77.42 189.13 86.59 194.57 66.16 206.46 56.93 201.09 56.93 201.09"/><polygon class="cls-7" points="86.59 194.57 86.75 195.22 66.75 206.81 66.16 206.46 86.59 194.57"/><polygon class="cls-6" points="78.69 211.81 78.69 232.08 88.51 226.3 88.51 206.11 78.69 211.81"/><polygon class="cls-7" points="78.69 211.81 78.69 232.08 78.06 231.53 78.06 212.44 78.69 211.81"/><polygon class="cls-6" points="68.24 217.83 68.24 238.1 78.06 232.32 78.06 212.13 68.24 217.83"/><polygon class="cls-7" points="68.24 217.83 68.24 238.1 67.6 237.54 67.6 218.46 68.24 217.83"/><polygon class="cls-4" points="90.04 225.34 90.1 194.41 89.14 194.99 89.14 225.88 90.04 225.34"/><polygon class="cls-4" points="67.55 238.64 67.61 213.73 66.65 214.31 66.65 239.18 67.55 238.64"/><polygon class="cls-4" points="66.65 214 89.14 201.14 89.14 205.84 66.65 218.96 66.65 214"/><polygon class="cls-5" points="23.84 183.49 23.67 184.71 66.33 209.49 66.33 208.01 23.84 183.49"/><path class="cls-8" d="M47.65,169.89l-23.81,13.6,42.5,24.57L90.09,194.2Zm-21,13.6,21-12.25,39.75,23L66.34,206.61Z"/><polygon class="cls-4" points="90.09 195.65 90.09 194.2 66.33 208.06 66.33 209.49 90.09 195.65"/><polygon class="cls-8" points="65.7 213.42 88.2 200.59 89.14 201.14 66.65 214 65.7 213.42"/><polygon class="cls-5" points="65.7 238.64 65.7 213.42 66.65 214 66.65 239.18 65.7 238.64"/><path class="cls-12" d="M34,203.28c-.49-.36-.72-.44-.83-.43h0a.08.08,0,0,0-.08,0l-3.82,2.17,2.22,10.24,3.8-2.22v-6.65S35,204,34,203.28Z"/><path class="cls-13" d="M31.49,215.3v-6.66s-.29-2.4-1.29-3.14-.92-.32-.92-.32V214Z"/><path class="cls-14" d="M31.9,207.5l0,.16a.51.51,0,0,0,.77.36l1.49-.9a1,1,0,0,0,.44-1l0-.11a.51.51,0,0,0-.76-.33l-1.48.87A1,1,0,0,0,31.9,207.5Z"/><path class="cls-3" d="M48.86,221.32l3-1.72a1.74,1.74,0,0,1,1.74,0l3,1.72a.51.51,0,0,1,0,.88l-3,1.72a1.78,1.78,0,0,1-1.73,0l-3-1.71A.52.52,0,0,1,48.86,221.32Z"/></g><g id="_37" data-name="37"><polygon class="cls-2" points="502.94 574.55 526.15 560.95 483.87 536.5 460.49 550.01 502.94 574.55"/><path class="cls-15" d="M473.64,547.66l9-5.13a5.17,5.17,0,0,1,5.16,0l8.81,5.11a1.51,1.51,0,0,1,0,2.62l-8.91,5.1a5.18,5.18,0,0,1-5.14,0l-8.89-5.09A1.52,1.52,0,0,1,473.64,547.66Z"/><path class="cls-15" d="M493.27,554.12l3-1.71a1.71,1.71,0,0,1,1.72,0l2.95,1.71a.51.51,0,0,1,0,.88l-3,1.71a1.76,1.76,0,0,1-1.72,0l-3-1.71A.51.51,0,0,1,493.27,554.12Z"/><path class="cls-16" d="M517.41,552a1,1,0,0,0-.53,0h0a1.11,1.11,0,0,0-.3.17l-3.62,2.09.79,1.24s-.07,4-.05,4.39,1,3.9,1,3.9l3.79-2.21.1-8.72S518.59,552.28,517.41,552Z"/><path class="cls-13" d="M512.09,562.39v-6.34s.18-2.07,1.54-1.8c1.18.24,1.12.9,1.12.9l-.11,8.72Z"/><polygon class="cls-4" points="526.12 561.72 526.15 560.95 502.94 574.47 502.94 575.26 526.12 561.72"/><polygon class="cls-5" points="460.49 550.01 460.39 550.6 502.94 575.26 502.94 574.42 460.49 550.01"/><polygon class="cls-6" points="473.31 523.34 473.31 543.52 483.08 537.76 483.08 517.66 473.31 523.34"/><polygon class="cls-7" points="473.31 523.34 473.31 543.52 472.68 542.96 472.68 523.97 473.31 523.34"/><polygon class="cls-6" points="462.9 529.33 462.9 549.51 472.68 543.75 472.68 523.66 462.9 529.33"/><polygon class="cls-7" points="462.9 529.33 462.9 549.51 462.06 548.97 462.27 529.96 462.9 529.33"/><polygon class="cls-4" points="483.98 537.75 484.04 512.64 483.08 513.22 483.08 538.29 483.98 537.75"/><polygon class="cls-5" points="482.13 537.75 482.13 512.64 483.08 513.22 483.08 538.29 482.13 537.75"/><polygon class="cls-8" points="461.11 524.52 483.08 511.96 484.03 512.54 461.32 525.52 461.11 524.52"/><polygon class="cls-4" points="461.32 525.52 484.03 512.54 484.03 517.28 461.32 530.46 461.32 525.52"/><polygon class="cls-10" points="500.74 565.72 506.58 562.04 469.37 540.28 463.64 543.7 500.74 565.72"/><polygon class="cls-4" points="506.65 562.75 506.58 562.04 500.74 565.64 500.74 566.43 506.65 562.75"/><polygon class="cls-11" points="463.64 543.7 463.55 544.29 500.74 566.43 500.74 565.59 463.64 543.7"/><polygon class="cls-4" points="525.91 561.08 525.97 536.29 525.02 536.55 525.02 561.62 525.91 561.08"/><polygon class="cls-5" points="524.07 561.08 524.14 536.29 525.02 536.55 525.02 561.62 524.07 561.08"/><polygon class="cls-6" points="514.93 547.3 514.93 567.48 524.7 561.73 524.7 541.63 514.93 547.3"/><polygon class="cls-7" points="514.93 547.3 514.93 567.48 514.3 566.93 514.3 547.93 514.93 547.3"/><polygon class="cls-6" points="504.52 553.29 504.52 573.48 514.3 567.72 514.3 547.62 504.52 553.29"/><polygon class="cls-7" points="504.52 553.29 504.52 573.48 503.89 572.92 503.89 553.93 504.52 553.29"/><polygon class="cls-4" points="502.94 549.48 525.33 536.5 525.33 541.36 502.94 554.42 502.94 549.48"/><polygon class="cls-8" points="502 548.9 525.02 535.79 525.97 536.29 502.94 549.48 502 548.9"/><polygon class="cls-4" points="462.54 550.05 462.6 519.26 461.64 519.84 461.64 550.59 462.54 550.05"/><polygon class="cls-5" points="460.69 550.05 460.69 519.26 461.64 519.84 461.64 550.59 460.69 550.05"/><polygon class="cls-5" points="461.64 525.51 502 548.8 502 553.46 461.64 530.21 461.64 525.51"/><polygon class="cls-8" points="461.64 525.55 462.6 525.07 502 547.59 502 548.88 461.64 525.55"/><polygon class="cls-7" points="472.29 556.55 472.99 556.03 473.15 536.84 472.36 536.38 472.29 556.55"/><polygon class="cls-6" points="472.99 536.79 472.99 556.76 482.13 562.17 482.13 542.06 472.99 536.79"/><polygon class="cls-7" points="482.06 562.22 482.76 561.71 482.92 542.51 482.13 542.06 482.06 562.22"/><polygon class="cls-6" points="482.76 542.47 482.76 562.44 491.91 567.85 491.91 547.74 482.76 542.47"/><polygon class="cls-7" points="491.84 567.9 492.54 567.38 492.7 548.19 491.91 547.74 491.84 567.9"/><polygon class="cls-6" points="492.54 547.83 492.54 567.8 501.68 573.21 501.68 553.1 492.54 547.83"/><polygon class="cls-7" points="501.61 573.26 502.31 572.74 502.47 553.55 501.68 553.1 501.61 573.26"/><polygon class="cls-5" points="502 573.7 502 542.91 502.94 543.49 502.94 574.23 502 573.7"/><polygon class="cls-6" points="462.9 531.12 462.9 551.09 472.36 556.49 472.36 536.38 462.9 531.12"/><polygon class="cls-4" points="503.84 573.7 503.9 542.91 502.94 543.49 502.94 574.23 503.84 573.7"/><polygon class="cls-4" points="484.34 508.02 464.76 519.58 463.4 518.79 484.34 506.6 484.34 508.02"/><polygon class="cls-5" points="524 529.46 484.34 506.6 484.34 507.89 522.76 530.14 524 529.46"/><polygon class="cls-6" points="464.26 519.29 484.34 507.54 493.78 512.8 473.45 524.64 464.26 519.29 464.26 519.29"/><polygon class="cls-7" points="493.78 512.8 493.94 513.45 474.04 524.98 473.45 524.64 493.78 512.8"/><polygon class="cls-6" points="474.03 524.96 494.28 513.09 503.56 518.48 483.22 530.31 474.03 524.96 474.03 524.96"/><polygon class="cls-7" points="503.56 518.48 503.71 519.12 483.81 530.66 483.22 530.31 503.56 518.48"/><polygon class="cls-7" points="513.35 524.05 513.35 524.8 493.52 536.33 492.89 535.99 513.35 524.05"/><polygon class="cls-6" points="483.81 530.64 504.17 518.79 513.49 524.05 493 535.99 483.81 530.64 483.81 530.64"/><polygon class="cls-6" points="493.58 536.31 513.98 524.41 523.11 529.83 502.77 541.66 493.58 536.31 493.58 536.31"/><polygon class="cls-7" points="523.11 529.83 523.26 530.48 503.36 542.01 502.77 541.66 523.11 529.83"/><polygon class="cls-5" points="460.69 518.79 460.69 520.11 502.94 544.67 502.94 543.21 460.69 518.79"/><path class="cls-8" d="M484.34,505.26l-23.69,13.53L503,543.25l23.64-13.79Zm-20.93,13.53,20.93-12.19,39.58,22.86-21,12.35Z"/><polygon class="cls-4" points="526.59 530.9 526.59 529.46 502.94 543.25 502.94 544.67 526.59 530.9"/></g><g id="_22" data-name="22"><path class="cls-17" d="M106.26,322.75c0,.57-.67,1-1.53,1s-1.52-.47-1.52-1,.7-1,1.55-1S106.26,322.18,106.26,322.75Z"/><path id="_Path_" data-name="&lt;Path&gt;" class="cls-18" d="M104.76,323h0a.57.57,0,0,1-.57-.56V286.86a.58.58,0,0,1,.57-.57h0a.58.58,0,0,1,.57.57v35.62A.57.57,0,0,1,104.76,323Z"/><path id="_Path_2" data-name="&lt;Path&gt;" class="cls-19" d="M114.82,281.31l-.73,8.18a2.1,2.1,0,0,1-1,1.81l-5.31,4.11c-.58.36-2-.54-2-1.22v-8.4a2.12,2.12,0,0,1,1-1.82l6-3.61C113.35,280,114.82,280.64,114.82,281.31Z"/><path id="_Path_3" data-name="&lt;Path&gt;" class="cls-20" d="M115,281.56V290a2.12,2.12,0,0,1-1,1.81l-6,3.63a.87.87,0,0,1-1.32-.74v-8.4a2.15,2.15,0,0,1,1-1.82l6-3.61A.87.87,0,0,1,115,281.56Z"/><polygon id="_Path_4" data-name="&lt;Path&gt;" class="cls-20" points="105.33 288.51 106.24 287.89 106.24 288.81 105.33 289.39 105.33 288.51"/><polygon id="_Path_5" data-name="&lt;Path&gt;" class="cls-20" points="105.33 292.46 106.24 291.84 106.24 292.76 105.33 293.35 105.33 292.46"/><polygon class="cls-9" points="107.97 293.33 108.62 291.79 109.08 291.49 108.88 292.72 107.97 293.33"/><polygon class="cls-9" points="110.88 290.3 110.69 291.52 111.54 290.95 111.4 289.95 110.88 290.3"/><polygon class="cls-9" points="113.09 288.82 113.4 289.72 114.23 289.17 113.66 288.44 113.09 288.82"/><path class="cls-9" d="M110.53,288.21l0-.77-.8,1.21s0,.33.07.39.25-.23.25-.23Z"/><path class="cls-9" d="M111.7,286.54l.8.22-.12.68s0,.27.14.26c.51-.05.41-1.11.41-1.11l-.41-.41-.9-.19s-.94.67-.94,1,0,1.37,0,1.37l-.79,1.49-.46,1.81s-.05.33.18.28.38-.4.38-.4l.48-1.84,1.1-1.57a1,1,0,0,0,.19-.4C111.73,287.58,111.7,286.54,111.7,286.54Z"/><path class="cls-9" d="M111.24,288.88l1.14,1.23a1,1,0,0,0,.38-.33.36.36,0,0,0,0-.4l-1.09-1.17Z"/><path class="cls-9" d="M110.75,285.66a1.4,1.4,0,0,1,.58-.65c.18-.07.32,0,.28.2s-.25.84-.56,1-.35,0-.37-.19A.62.62,0,0,1,110.75,285.66Z"/></g><g id="_18" data-name="18"><path class="cls-21" d="M842,356.61c0,.6-.7,1.09-1.59,1.09s-1.6-.49-1.6-1.09.73-1.09,1.63-1.09S842,356,842,356.61Z"/><path id="_Path_6" data-name="&lt;Path&gt;" class="cls-22" d="M840.47,356.92h0a.6.6,0,0,1-.6-.59V319a.59.59,0,0,1,.6-.59h0a.59.59,0,0,1,.59.59v37.33A.6.6,0,0,1,840.47,356.92Z"/><path class="cls-23" d="M849.71,321.79c-.66,3.2-1.57,6.29-3.75,6.4A5.28,5.28,0,0,1,842.9,327c-1.4-1.15-1.82-3.48-1.36-6.07.73-4,3.57-6.83,6-6.11a4.63,4.63,0,0,1,2.43,1.43C850.9,317.46,850.13,319.74,849.71,321.79Z"/><path class="cls-20" d="M850.92,322.32c-.66,3.21-2.78,5.81-5,5.87-2.42.08-4.05-3-3.34-6.93s3.48-6.73,5.86-6C850.6,315.88,851.6,319.05,850.92,322.32Z"/><polygon id="_Path_7" data-name="&lt;Path&gt;" class="cls-24" points="841.06 322.89 842.02 322.25 842.02 323.21 841.06 323.82 841.06 322.89"/><g class="cls-25"><path class="cls-9" d="M846.62,328.36c0,.46,0,.65,0,.65l1.31-.8V320l1-.7-1.63-2.23-1.62,4.38,1-.64v5.72S846.61,327.83,846.62,328.36Z"/></g></g><g id="_27" data-name="27"><polygon class="cls-26" points="105.47 328.6 105.53 329.9 127.75 342.96 127.73 341.57 105.47 328.6"/><polygon class="cls-27" points="127.73 341.57 134.43 337.73 134.44 339.1 127.75 342.96 127.73 341.57"/><polygon class="cls-4" points="123.94 340.67 123.94 346.62 130.2 342.96 130.2 341.54 127.75 342.96 123.94 340.67"/><polygon class="cls-26" points="122.69 339.92 122.69 345.98 123.94 346.62 123.94 340.67 122.69 339.92"/><polygon class="cls-4" points="109.54 332.26 109.54 338.42 114.86 335.37 114.14 334.95 113.73 334.7 109.54 332.26"/><polygon class="cls-26" points="108.61 331.65 108.61 337.78 109.54 338.42 109.54 332.15 108.61 331.65"/><polygon class="cls-28" points="105.47 328.6 127.73 341.57 134.43 337.73 112.28 324.7 105.47 328.6"/><polygon class="cls-29" points="107.67 328.6 112.33 325.94 132.19 337.56 127.73 340.17 107.67 328.6"/><polygon class="cls-30" points="105.19 326.45 103.71 317.35 125.46 329.97 127.41 339.32 105.19 326.45"/><polygon class="cls-31" points="103.71 317.35 104.86 316.62 126.63 329.23 125.46 329.97 103.71 317.35"/><polygon class="cls-27" points="125.46 329.97 126.63 329.23 128.59 338.6 127.41 339.32 125.46 329.97"/><polygon class="cls-30" points="108.61 328.43 109.54 332.26 108.61 331.65 107.67 327.88 108.61 328.43"/><polygon class="cls-30" points="123.31 336.95 123.94 340.67 122.69 339.92 122.14 336.26 123.31 336.95"/><polygon class="cls-4" points="109.54 328.97 110.13 331.31 109.54 332.26 108.61 328.43 109.54 328.97"/><polygon class="cls-4" points="123.31 336.95 124.2 337.46 124.63 339.76 123.94 340.67 123.31 336.95"/></g><g id="_28" data-name="28"><path class="cls-32" d="M449.8,450a3.93,3.93,0,1,1-3.93-3.93A3.93,3.93,0,0,1,449.8,450Z"/><path class="cls-33" d="M438.2,500.5c0,.81-1,1.48-2.19,1.48s-2.2-.67-2.2-1.48,1-1.48,2.2-1.48S438.2,499.69,438.2,500.5Z"/><path class="cls-34" d="M448.39,446.81c0,.7-1.13,1.28-2.52,1.28s-2.52-.58-2.52-1.28,1.13-1.29,2.52-1.29S448.39,446.1,448.39,446.81Z"/><path class="cls-35" d="M436.76,460.28l-1.31.3c.28-1.65,2.05-17,6.19-18.32a3.46,3.46,0,0,1,3.38.31c1.56,1.23,1.37,3.92,1.36,4l-1.23-.1c0-.59,0-2.3-.9-3a2.34,2.34,0,0,0-2.22-.1C439.44,444.28,437.77,454.33,436.76,460.28Z"/><path id="_Path_8" data-name="&lt;Path&gt;" class="cls-36" d="M436.05,500.91h0a.91.91,0,0,1-.89-.77l.15-52a.74.74,0,0,1,.74-.74h0a.74.74,0,0,1,.74.74l.17,52A.86.86,0,0,1,436.05,500.91Z"/></g><g id="_28-2" data-name="28"><path class="cls-37" d="M492.8,308a3.93,3.93,0,1,1-3.93-3.93A3.93,3.93,0,0,1,492.8,308Z"/><path class="cls-38" d="M481.2,358.5c0,.81-1,1.48-2.19,1.48s-2.2-.67-2.2-1.48,1-1.48,2.2-1.48S481.2,357.69,481.2,358.5Z"/><path class="cls-39" d="M491.39,304.81c0,.7-1.13,1.28-2.52,1.28s-2.52-.58-2.52-1.28,1.13-1.29,2.52-1.29S491.39,304.1,491.39,304.81Z"/><path class="cls-40" d="M479.76,318.28l-1.31.3c.28-1.65,2.05-17,6.19-18.32a3.46,3.46,0,0,1,3.38.31c1.56,1.23,1.37,3.92,1.36,4l-1.23-.1c0-.59,0-2.3-.9-3a2.34,2.34,0,0,0-2.22-.1C482.44,302.28,480.77,312.33,479.76,318.28Z"/><path id="_Path_9" data-name="&lt;Path&gt;" class="cls-41" d="M479.05,358.91h0a.91.91,0,0,1-.89-.77l.15-52a.74.74,0,0,1,.74-.74h0a.74.74,0,0,1,.74.74l.17,52A.86.86,0,0,1,479.05,358.91Z"/></g><g id="_28-3" data-name="28"><path class="cls-42" d="M572.8,261a3.93,3.93,0,1,1-3.93-3.93A3.93,3.93,0,0,1,572.8,261Z"/><path class="cls-43" d="M561.2,311.5c0,.81-1,1.48-2.19,1.48s-2.2-.67-2.2-1.48,1-1.48,2.2-1.48S561.2,310.69,561.2,311.5Z"/><path class="cls-44" d="M571.39,257.81c0,.7-1.13,1.28-2.52,1.28s-2.52-.58-2.52-1.28,1.13-1.29,2.52-1.29S571.39,257.1,571.39,257.81Z"/><path class="cls-45" d="M559.76,271.28l-1.31.3c.28-1.65,2-17,6.19-18.32a3.46,3.46,0,0,1,3.38.31c1.56,1.23,1.37,3.92,1.36,4l-1.23-.1c0-.59,0-2.3-.9-3a2.34,2.34,0,0,0-2.22-.1C562.44,255.28,560.77,265.33,559.76,271.28Z"/><path id="_Path_10" data-name="&lt;Path&gt;" class="cls-46" d="M559.05,311.91h0a.91.91,0,0,1-.89-.77l.15-52a.74.74,0,0,1,.74-.74h0a.74.74,0,0,1,.74.74l.17,52A.86.86,0,0,1,559.05,311.91Z"/></g><g id="_28-4" data-name="28"><path class="cls-47" d="M648.8,218a3.93,3.93,0,1,1-3.93-3.93A3.93,3.93,0,0,1,648.8,218Z"/><path class="cls-48" d="M637.2,268.5c0,.81-1,1.48-2.19,1.48s-2.2-.67-2.2-1.48,1-1.48,2.2-1.48S637.2,267.69,637.2,268.5Z"/><path class="cls-49" d="M647.39,214.81c0,.7-1.13,1.28-2.52,1.28s-2.52-.58-2.52-1.28,1.13-1.29,2.52-1.29S647.39,214.1,647.39,214.81Z"/><path class="cls-50" d="M635.76,228.28l-1.31.3c.28-1.65,2-17,6.19-18.32a3.46,3.46,0,0,1,3.38.31c1.56,1.23,1.37,3.92,1.36,4l-1.23-.1c0-.59,0-2.3-.9-3a2.34,2.34,0,0,0-2.22-.1C638.44,212.28,636.77,222.33,635.76,228.28Z"/><path id="_Path_11" data-name="&lt;Path&gt;" class="cls-51" d="M635.05,268.91h0a.91.91,0,0,1-.89-.77l.15-52a.74.74,0,0,1,.74-.74h0a.74.74,0,0,1,.74.74l.17,52A.86.86,0,0,1,635.05,268.91Z"/></g><g id="_28-5" data-name="28"><path class="cls-52" d="M796.8,132a3.93,3.93,0,1,1-3.93-3.93A3.93,3.93,0,0,1,796.8,132Z"/><path class="cls-53" d="M785.2,182.5c0,.81-1,1.48-2.19,1.48s-2.2-.67-2.2-1.48,1-1.48,2.2-1.48S785.2,181.69,785.2,182.5Z"/><path class="cls-54" d="M795.39,128.81c0,.7-1.13,1.28-2.52,1.28s-2.52-.58-2.52-1.28,1.13-1.29,2.52-1.29S795.39,128.1,795.39,128.81Z"/><path class="cls-55" d="M783.76,142.28l-1.31.3c.28-1.65,2-17,6.19-18.32a3.46,3.46,0,0,1,3.38.31c1.56,1.23,1.37,3.92,1.36,4l-1.23-.1c0-.59,0-2.3-.9-3a2.34,2.34,0,0,0-2.22-.1C786.44,126.28,784.77,136.33,783.76,142.28Z"/><path id="_Path_12" data-name="&lt;Path&gt;" class="cls-56" d="M783.05,182.91h0a.91.91,0,0,1-.89-.77l.15-52a.74.74,0,0,1,.74-.74h0a.74.74,0,0,1,.74.74l.17,52A.86.86,0,0,1,783.05,182.91Z"/></g><g id="_28-6" data-name="28"><path class="cls-57" d="M264.8,440a3.93,3.93,0,1,1-3.93-3.93A3.93,3.93,0,0,1,264.8,440Z"/><path class="cls-58" d="M253.2,490.5c0,.81-1,1.48-2.19,1.48s-2.2-.67-2.2-1.48,1-1.48,2.2-1.48S253.2,489.69,253.2,490.5Z"/><path class="cls-59" d="M263.39,436.81c0,.7-1.13,1.28-2.52,1.28s-2.52-.58-2.52-1.28,1.13-1.29,2.52-1.29S263.39,436.1,263.39,436.81Z"/><path class="cls-60" d="M251.76,450.28l-1.31.3c.28-1.65,2.05-17,6.19-18.32a3.46,3.46,0,0,1,3.38.31c1.56,1.23,1.37,3.92,1.36,4l-1.23-.1c0-.59,0-2.3-.9-3a2.34,2.34,0,0,0-2.22-.1C254.44,434.28,252.77,444.33,251.76,450.28Z"/><path id="_Path_13" data-name="&lt;Path&gt;" class="cls-61" d="M251.05,490.91h0a.91.91,0,0,1-.89-.77l.15-52a.74.74,0,0,1,.74-.74h0a.74.74,0,0,1,.74.74l.17,52A.86.86,0,0,1,251.05,490.91Z"/></g><g id="_4" data-name="4"><polygon class="cls-62" points="75.08 244.6 75.08 233.07 80.85 229.59 80.85 241.31 75.08 244.6"/><polygon class="cls-63" points="69.31 229.89 75.08 233.07 75.08 244.6 69.31 241.16 69.31 229.89"/><polygon class="cls-64" points="71.43 229.82 75.08 227.57 78.72 229.63 75.08 231.83 71.43 229.82"/><path class="cls-65" d="M75.08,226.33l-5.77,3.56,5.77,3.18,5.77-3.47Zm-3.65,3.49,3.65-2.25,3.65,2.06-3.65,2.2Z"/><polygon class="cls-66" points="75.08 227.57 75.08 231.83 71.43 229.82 75.08 227.57"/><path class="cls-65" d="M75.08,219.6l-5.77,3.55,5.77,3.18,5.77-3.47Zm-3.65,3.49,3.65-2.25,3.65,2.06-3.65,2.2Z"/><polygon class="cls-67" points="71.43 223.08 75.08 220.84 78.72 222.9 75.08 225.09 71.43 223.08"/><polygon class="cls-68" points="75.08 220.84 75.08 225.1 71.43 223.08 75.08 220.84"/><polygon class="cls-69" points="69.31 223.15 69.41 226.46 75.04 229.49 75.08 226.33 69.31 223.15"/><polygon class="cls-70" points="75.08 226.33 80.85 222.86 80.93 226.32 80.85 229.59 79.42 230.46 79.46 226.88 75.04 229.49 75.08 226.33"/><polygon class="cls-71" points="79.42 230.46 76.32 228.73 79.46 226.88 79.42 230.46"/></g><g id="_26" data-name="26"><path class="cls-72" d="M437.15,31.77c-1.06-.57-1.47-.73-1.69-.71h0a.18.18,0,0,0-.16.09l-8.56,4.79,4.36,20.16,8.51-4.89V38.11S440.23,33.44,437.15,31.77Z"/><path class="cls-13" d="M431.25,56.1V43s.26-4.68-2.61-6.2c-2.16-1.14-1.85-.62-1.85-.62l0,17.43Z"/><path class="cls-73" d="M431.94,40.75l0,.3a1,1,0,0,0,1.53.71l4.42-2.55a1.88,1.88,0,0,0,.86-2l0-.21a1,1,0,0,0-1.51-.65l-4.4,2.5A1.89,1.89,0,0,0,431.94,40.75Z"/></g><g id="_29" data-name="29"><path class="cls-74" d="M603.33,153.28c0,1.72-2.08,3.13-4.64,3.13s-4.64-1.41-4.64-3.13,2.07-3.13,4.64-3.13S603.33,151.57,603.33,153.28Z"/><path class="cls-75" d="M602.08,138,595.4,138l-.53,14.21c0,1.41,1.84,2.65,3.94,2.65s3.7-1.14,3.7-2.55Z"/><path class="cls-76" d="M602.89,137.38c.06,2.2-1.89,3.52-4.2,3.52s-4.17-1.41-4.1-3.52c0-1.55,1.92-2.81,4.23-2.81S602.84,135.83,602.89,137.38Z"/><ellipse class="cls-77" cx="598.74" cy="136.82" rx="4.21" ry="2.84"/><path class="cls-78" d="M602.27,136.25c0,1.31-1.58,2.39-3.53,2.39s-3.54-1.08-3.54-2.39a3.55,3.55,0,0,1,3.49-3.05C600.64,133.2,602.27,134.94,602.27,136.25Z"/><path class="cls-79" d="M600.58,134.29c0,.68-.8,1.23-1.78,1.23S597,135,597,134.29c0-.23,0-1,.11-1.15.31-.36,1-.09,1.68-.09s1.36-.09,1.68.24S600.58,134,600.58,134.29Z"/><path class="cls-80" d="M600.58,133.56c0,.68-.8,1.23-1.78,1.23s-1.79-.55-1.79-1.23.8-1.24,1.79-1.24S600.58,132.87,600.58,133.56Z"/><ellipse class="cls-81" cx="598.8" cy="133.56" rx="0.98" ry="0.68"/><rect class="cls-82" x="590.37" y="147.37" width="13.75" height="0.52" transform="translate(431.06 739.98) rotate(-88.21)"/><rect class="cls-83" x="600.16" y="140.75" width="0.52" height="13.75" transform="translate(-3.61 15.56) rotate(-1.48)"/><path class="cls-84" d="M600.27,148.29c-1.55-.54-2-2.25-1.34-3.87s2.08-2.53,3.53-1.93c1.07.44,1.46,2.08.85,3.7S601.36,148.66,600.27,148.29Z"/><path class="cls-85" d="M600.65,148.48c-1.09-.41-1.49-2.07-.88-3.69s2-2.61,3.1-2.2,1.49,2.07.88,3.7S601.73,148.89,600.65,148.48Z"/><path class="cls-86" d="M601.22,148.16c-.91-.35-1.24-1.74-.73-3.1s1.69-2.19,2.6-1.84a2.64,2.64,0,0,1,1.21,3.24A2.75,2.75,0,0,1,601.22,148.16Z"/><path class="cls-87" d="M603,147.49c-.48-.18-.65-.88-.39-1.57s.86-1.1,1.33-.92c.16.06.69.22.77.38.18.31-.2.74-.38,1.19s-.29,1-.61,1.12S603.22,147.56,603,147.49Z"/><path class="cls-80" d="M603.55,147.69c-.48-.18-.65-.89-.39-1.57s.86-1.1,1.33-.92.66.88.39,1.57S604,147.87,603.55,147.69Z"/><path class="cls-81" d="M603.76,147.12c-.26-.09-.35-.48-.21-.86s.47-.6.73-.5.36.48.21.86S604,147.22,603.76,147.12Z"/></g><g id="_29-2" data-name="29"><path class="cls-88" d="M591.33,530.28c0,1.72-2.08,3.13-4.64,3.13s-4.64-1.41-4.64-3.13,2.07-3.13,4.64-3.13S591.33,528.57,591.33,530.28Z"/><path class="cls-89" d="M590.08,515,583.4,515l-.53,14.21c0,1.41,1.84,2.65,3.94,2.65s3.7-1.14,3.7-2.55Z"/><path class="cls-90" d="M590.89,514.38c.06,2.2-1.89,3.52-4.2,3.52s-4.17-1.41-4.1-3.52c0-1.55,1.92-2.81,4.23-2.81S590.84,512.83,590.89,514.38Z"/><ellipse class="cls-91" cx="586.74" cy="513.82" rx="4.21" ry="2.84"/><path class="cls-92" d="M590.27,513.25c0,1.31-1.58,2.39-3.53,2.39s-3.54-1.08-3.54-2.39a3.55,3.55,0,0,1,3.49-3.05C588.64,510.2,590.27,511.94,590.27,513.25Z"/><path class="cls-93" d="M588.58,511.29c0,.68-.8,1.23-1.78,1.23S585,512,585,511.29c0-.23,0-1,.11-1.15.31-.36,1-.09,1.68-.09s1.36-.09,1.68.24S588.58,511,588.58,511.29Z"/><path class="cls-80" d="M588.58,510.56c0,.68-.8,1.23-1.78,1.23s-1.79-.55-1.79-1.23.8-1.24,1.79-1.24S588.58,509.87,588.58,510.56Z"/><ellipse class="cls-81" cx="586.8" cy="510.56" rx="0.98" ry="0.68"/><rect class="cls-82" x="578.37" y="524.37" width="13.75" height="0.52" transform="translate(42.62 1093.23) rotate(-88.21)"/><rect class="cls-83" x="588.16" y="517.75" width="0.52" height="13.75" transform="translate(-13.36 15.38) rotate(-1.48)"/><path class="cls-94" d="M588.27,525.29c-1.55-.54-2-2.25-1.34-3.87s2.08-2.53,3.53-1.93c1.07.44,1.46,2.08.85,3.7S589.36,525.66,588.27,525.29Z"/><path class="cls-85" d="M588.65,525.48c-1.09-.41-1.49-2.07-.88-3.69s2-2.61,3.1-2.2,1.49,2.07.88,3.7S589.73,525.89,588.65,525.48Z"/><path class="cls-95" d="M589.22,525.16c-.91-.35-1.24-1.74-.73-3.1s1.69-2.19,2.6-1.84a2.64,2.64,0,0,1,1.21,3.24A2.75,2.75,0,0,1,589.22,525.16Z"/><path class="cls-96" d="M591,524.49c-.48-.18-.65-.88-.39-1.57s.86-1.1,1.33-.92c.16.06.69.22.77.38.18.31-.2.74-.38,1.19s-.29,1-.61,1.12S591.22,524.56,591,524.49Z"/><path class="cls-80" d="M591.55,524.69c-.48-.18-.65-.89-.39-1.57s.86-1.1,1.33-.92.66.88.39,1.57S592,524.87,591.55,524.69Z"/><path class="cls-81" d="M591.76,524.12c-.26-.09-.35-.48-.21-.86s.47-.6.73-.5.36.48.21.86S592,524.22,591.76,524.12Z"/></g><g id="_29-3" data-name="29"><path class="cls-97" d="M105.33,250.28c0,1.72-2.08,3.13-4.64,3.13s-4.64-1.41-4.64-3.13,2.07-3.13,4.64-3.13S105.33,248.57,105.33,250.28Z"/><path class="cls-98" d="M104.08,235,97.4,235l-.53,14.21c0,1.41,1.84,2.65,3.94,2.65s3.7-1.14,3.7-2.55Z"/><path class="cls-99" d="M104.89,234.38c.06,2.2-1.89,3.52-4.2,3.52s-4.17-1.41-4.1-3.52c0-1.55,1.92-2.81,4.23-2.81S104.84,232.83,104.89,234.38Z"/><ellipse class="cls-100" cx="100.74" cy="233.82" rx="4.21" ry="2.84"/><path class="cls-101" d="M104.27,233.25c0,1.31-1.58,2.39-3.53,2.39s-3.54-1.08-3.54-2.39a3.55,3.55,0,0,1,3.49-3.05C102.64,230.2,104.27,231.94,104.27,233.25Z"/><path class="cls-102" d="M102.58,231.29c0,.68-.8,1.23-1.78,1.23S99,232,99,231.29c0-.23-.05-1,.11-1.15.31-.36,1-.09,1.68-.09s1.36-.09,1.68.24S102.58,231,102.58,231.29Z"/><path class="cls-80" d="M102.58,230.56c0,.68-.8,1.23-1.78,1.23S99,231.24,99,230.56s.8-1.24,1.79-1.24S102.58,229.87,102.58,230.56Z"/><path class="cls-81" d="M101.78,230.56c0,.37-.44.67-1,.67s-1-.3-1-.67.44-.68,1-.68S101.78,230.18,101.78,230.56Z"/><rect class="cls-82" x="92.37" y="244.37" width="13.75" height="0.52" transform="translate(-148.36 336.2) rotate(-88.21)"/><rect class="cls-83" x="102.16" y="237.75" width="0.52" height="13.75" transform="translate(-6.29 2.73) rotate(-1.48)"/><path class="cls-103" d="M102.27,245.29c-1.55-.54-2-2.25-1.34-3.87s2.08-2.53,3.53-1.93c1.07.44,1.46,2.08.85,3.7S103.36,245.66,102.27,245.29Z"/><path class="cls-85" d="M102.65,245.48c-1.09-.41-1.49-2.07-.88-3.69s2-2.61,3.1-2.2,1.49,2.07.88,3.7S103.73,245.89,102.65,245.48Z"/><path class="cls-104" d="M103.22,245.16c-.91-.35-1.24-1.74-.73-3.1s1.69-2.19,2.6-1.84a2.64,2.64,0,0,1,1.21,3.24A2.75,2.75,0,0,1,103.22,245.16Z"/><path class="cls-105" d="M105,244.49c-.48-.18-.65-.88-.39-1.57s.86-1.1,1.33-.92c.16.06.69.22.77.38.18.31-.2.74-.38,1.19s-.29,1-.61,1.12S105.22,244.56,105,244.49Z"/><path class="cls-80" d="M105.55,244.69c-.48-.18-.65-.89-.39-1.57s.86-1.1,1.33-.92.66.88.39,1.57S106,244.87,105.55,244.69Z"/><path class="cls-81" d="M105.76,244.12c-.26-.09-.35-.48-.21-.86s.47-.6.73-.5.36.48.21.86S106,244.22,105.76,244.12Z"/></g><g id="_27-2" data-name="27"><polygon class="cls-26" points="779.47 326.6 779.53 327.9 801.75 340.96 801.73 339.57 779.47 326.6"/><polygon class="cls-27" points="801.73 339.57 808.43 335.73 808.44 337.1 801.75 340.96 801.73 339.57"/><polygon class="cls-4" points="797.94 338.67 797.94 344.62 804.2 340.96 804.2 339.54 801.75 340.96 797.94 338.67"/><polygon class="cls-26" points="796.69 337.92 796.69 343.98 797.94 344.62 797.94 338.67 796.69 337.92"/><polygon class="cls-4" points="783.54 330.26 783.54 336.42 788.86 333.37 788.14 332.95 787.74 332.7 783.54 330.26"/><polygon class="cls-26" points="782.61 329.65 782.61 335.78 783.54 336.42 783.54 330.15 782.61 329.65"/><polygon class="cls-28" points="779.47 326.6 801.73 339.57 808.43 335.73 786.28 322.7 779.47 326.6"/><polygon class="cls-29" points="781.67 326.6 786.33 323.94 806.19 335.56 801.73 338.17 781.67 326.6"/><polygon class="cls-30" points="779.19 324.45 777.71 315.35 799.46 327.97 801.41 337.32 779.19 324.45"/><polygon class="cls-31" points="777.71 315.35 778.86 314.62 800.63 327.23 799.46 327.97 777.71 315.35"/><polygon class="cls-27" points="799.46 327.97 800.63 327.23 802.59 336.6 801.41 337.32 799.46 327.97"/><polygon class="cls-30" points="782.61 326.43 783.54 330.26 782.61 329.65 781.67 325.88 782.61 326.43"/><polygon class="cls-30" points="797.31 334.95 797.94 338.67 796.69 337.92 796.14 334.26 797.31 334.95"/><polygon class="cls-4" points="783.54 326.97 784.13 329.31 783.54 330.26 782.61 326.43 783.54 326.97"/><polygon class="cls-4" points="797.31 334.95 798.2 335.46 798.63 337.76 797.94 338.67 797.31 334.95"/></g><g id="_40" data-name="40"><ellipse class="cls-106" cx="625.73" cy="181.35" rx="2.11" ry="1.42"/><path id="_Path_14" data-name="&lt;Path&gt;" class="cls-107" d="M625.78,181.75h0a.87.87,0,0,1-.86-.73l.14-45.18a.72.72,0,0,1,.72-.72h0a.71.71,0,0,1,.71.72l.16,45.13A.83.83,0,0,1,625.78,181.75Z"/><path class="cls-108" d="M627.82,143c0,.57-.87,1-1.94,1s-1.94-.46-1.94-1,.87-1,1.94-1S627.82,142.44,627.82,143Z"/><path class="cls-109" d="M628.56,141.56c0,.77-1.2,1.42-2.68,1.42s-2.68-.65-2.68-1.42,1.2-1.43,2.68-1.43S628.56,140.78,628.56,141.56Z"/><circle class="cls-110" cx="625.97" cy="136.97" r="4.97"/></g><g id="_40-2" data-name="40"><ellipse class="cls-111" cx="518.73" cy="120.35" rx="2.11" ry="1.42"/><path id="_Path_15" data-name="&lt;Path&gt;" class="cls-112" d="M518.78,120.75h0a.87.87,0,0,1-.86-.73l.14-45.18a.72.72,0,0,1,.72-.72h0a.71.71,0,0,1,.71.72l.16,45.13A.83.83,0,0,1,518.78,120.75Z"/><path class="cls-113" d="M520.82,82c0,.57-.87,1-1.94,1s-1.94-.46-1.94-1,.87-1,1.94-1S520.82,81.44,520.82,82Z"/><path class="cls-114" d="M521.56,80.56c0,.77-1.2,1.42-2.68,1.42s-2.68-.65-2.68-1.42,1.2-1.43,2.68-1.43S521.56,79.78,521.56,80.56Z"/><circle class="cls-115" cx="518.97" cy="75.97" r="4.97"/></g><g id="_40-3" data-name="40"><ellipse class="cls-116" cx="397.73" cy="49.35" rx="2.11" ry="1.42"/><path id="_Path_16" data-name="&lt;Path&gt;" class="cls-117" d="M397.78,49.75h0a.87.87,0,0,1-.86-.73l.14-45.18a.72.72,0,0,1,.72-.72h0a.71.71,0,0,1,.71.72L398.65,49A.83.83,0,0,1,397.78,49.75Z"/><path class="cls-118" d="M399.82,11c0,.57-.87,1-1.94,1s-1.94-.46-1.94-1,.87-1,1.94-1S399.82,10.44,399.82,11Z"/><path class="cls-119" d="M400.56,9.56c0,.77-1.2,1.42-2.68,1.42s-2.68-.65-2.68-1.42,1.2-1.43,2.68-1.43S400.56,8.78,400.56,9.56Z"/><circle class="cls-120" cx="397.97" cy="4.97" r="4.97"/></g><g id="_40-4" data-name="40"><ellipse class="cls-121" cx="807.73" cy="286.35" rx="2.11" ry="1.42"/><path id="_Path_17" data-name="&lt;Path&gt;" class="cls-122" d="M807.78,286.75h0a.87.87,0,0,1-.86-.73l.14-45.18a.72.72,0,0,1,.72-.72h0a.71.71,0,0,1,.71.72l.16,45.13A.83.83,0,0,1,807.78,286.75Z"/><path class="cls-123" d="M809.82,248c0,.57-.87,1-1.94,1s-1.94-.46-1.94-1,.87-1,1.94-1S809.82,247.44,809.82,248Z"/><path class="cls-124" d="M810.56,246.56c0,.77-1.2,1.42-2.68,1.42s-2.68-.65-2.68-1.42,1.2-1.43,2.68-1.43S810.56,245.78,810.56,246.56Z"/><circle class="cls-125" cx="807.97" cy="241.97" r="4.97"/></g><g id="_40-5" data-name="40"><ellipse class="cls-126" cx="231.73" cy="342.35" rx="2.11" ry="1.42"/><path id="_Path_18" data-name="&lt;Path&gt;" class="cls-127" d="M231.78,342.75h0a.87.87,0,0,1-.86-.73l.14-45.18a.72.72,0,0,1,.72-.72h0a.71.71,0,0,1,.71.72l.16,45.13A.83.83,0,0,1,231.78,342.75Z"/><path class="cls-128" d="M233.82,304c0,.57-.87,1-1.94,1s-1.94-.46-1.94-1,.87-1,1.94-1S233.82,303.44,233.82,304Z"/><path class="cls-129" d="M234.56,302.56c0,.77-1.2,1.42-2.68,1.42s-2.68-.65-2.68-1.42,1.2-1.43,2.68-1.43S234.56,301.78,234.56,302.56Z"/><circle class="cls-130" cx="231.97" cy="297.97" r="4.97"/></g><g id="_40-6" data-name="40"><ellipse class="cls-131" cx="128.73" cy="283.35" rx="2.11" ry="1.42"/><path id="_Path_19" data-name="&lt;Path&gt;" class="cls-132" d="M128.78,283.75h0a.87.87,0,0,1-.86-.73l.14-45.18a.72.72,0,0,1,.72-.72h0a.71.71,0,0,1,.71.72l.16,45.13A.83.83,0,0,1,128.78,283.75Z"/><path class="cls-133" d="M130.82,245c0,.57-.87,1-1.94,1s-1.94-.46-1.94-1,.87-1,1.94-1S130.82,244.44,130.82,245Z"/><path class="cls-134" d="M131.56,243.56c0,.77-1.2,1.42-2.68,1.42s-2.68-.65-2.68-1.42,1.2-1.43,2.68-1.43S131.56,242.78,131.56,243.56Z"/><circle class="cls-135" cx="128.97" cy="238.97" r="4.97"/></g><g id="_40-7" data-name="40"><ellipse class="cls-136" cx="4.73" cy="211.35" rx="2.11" ry="1.42"/><path id="_Path_20" data-name="&lt;Path&gt;" class="cls-137" d="M4.78,211.75h0a.87.87,0,0,1-.86-.73l.14-45.18a.72.72,0,0,1,.72-.72h0a.71.71,0,0,1,.71.72L5.65,211A.83.83,0,0,1,4.78,211.75Z"/><path class="cls-138" d="M6.82,173c0,.57-.87,1-1.94,1s-1.94-.46-1.94-1,.87-1,1.94-1S6.82,172.44,6.82,173Z"/><path class="cls-139" d="M7.56,171.56c0,.77-1.2,1.42-2.68,1.42s-2.68-.65-2.68-1.42,1.2-1.43,2.68-1.43S7.56,170.78,7.56,171.56Z"/><circle class="cls-140" cx="4.97" cy="166.97" r="4.97"/></g></g></g></svg>